<svg width="244" height="120" viewBox="0 0 244 120" fill="none" xmlns="http://www.w3.org/2000/svg">
<path d="M192.5 26.2989L187.707 30.9145L194.697 32.5802L192.5 26.2989Z" fill="#1EA54C"/>
<path d="M49.1799 26.2989L53.9734 30.9145L46.983 32.5802L49.1799 26.2989Z" fill="#1EA54C"/>
<circle r="1.02538" transform="matrix(-0.118276 -0.992981 -0.992981 0.118276 205.038 28.5357)" fill="#1EA54C"/>
<circle cx="36.6419" cy="28.5357" r="1.02538" transform="rotate(-83.2074 36.6419 28.5357)" fill="#1EA54C"/>
<path d="M214.314 62.727L218.644 62.8207L216.924 58.8456L214.314 62.727Z" stroke="#E7EFEF" stroke-width="1.37118"/>
<path d="M217.977 35.179L221.636 37.497L222.218 33.2049L217.977 35.179Z" stroke="#1AA166" stroke-width="1.37118"/>
<path d="M199.685 48.9357L193.212 47.395L195.586 54.1775L199.685 48.9357Z" fill="#1EA54C"/>
<circle r="0.854485" transform="matrix(0.771757 -0.635918 -0.635918 -0.771757 221.637 49.9585)" fill="#1EA54C"/>
<circle r="1.53807" transform="matrix(0.771757 -0.635918 -0.635918 -0.771757 209.748 47.3544)" fill="#E7EFEF"/>
<circle r="1.02538" transform="matrix(0.771757 -0.635918 -0.635918 -0.771757 204.576 60.6953)" fill="#1EA54C"/>
<path d="M27.3671 62.727L23.0368 62.8207L24.757 58.8456L27.3671 62.727Z" stroke="#E7EFEF" stroke-width="1.37118"/>
<path d="M23.7035 35.179L20.0446 37.497L19.4631 33.2049L23.7035 35.179Z" stroke="#1AA166" stroke-width="1.37118"/>
<path d="M41.9953 48.9357L48.4689 47.395L46.0946 54.1775L41.9953 48.9357Z" fill="#1EA54C"/>
<circle cx="20.0436" cy="49.9585" r="0.854485" transform="rotate(-140.512 20.0436 49.9585)" fill="#1EA54C"/>
<circle cx="31.9327" cy="47.3544" r="1.53807" transform="rotate(-140.512 31.9327 47.3544)" fill="#E7EFEF"/>
<circle cx="37.1049" cy="60.6953" r="1.02538" transform="rotate(-140.512 37.1049 60.6953)" fill="#1EA54C"/>
<path d="M213.072 85.8128L214.516 81.7295L210.202 82.1187L213.072 85.8128Z" stroke="#E7EFEF" stroke-width="1.37118"/>
<path d="M188.055 73.7087L191.402 70.9595L187.508 69.0634L188.055 73.7087Z" stroke="#1AA166" stroke-width="1.37118"/>
<path d="M186.598 83.3309L183.108 88.9966L190.293 88.8652L186.598 83.3309Z" fill="#1EA54C"/>
<circle r="0.854485" transform="matrix(-0.362328 -0.932051 -0.932051 0.362328 203.238 74.8599)" fill="#1EA54C"/>
<circle r="1.53807" transform="matrix(-0.362328 -0.932051 -0.932051 0.362328 197.042 85.3361)" fill="#E7EFEF"/>
<circle r="1.02538" transform="matrix(-0.362328 -0.932051 -0.932051 0.362328 217.405 75.2593)" fill="#1EA54C"/>
<path d="M28.6091 85.8128L27.1644 81.7295L31.4782 82.1187L28.6091 85.8128Z" stroke="#E7EFEF" stroke-width="1.37118"/>
<path d="M53.6252 73.7087L50.2782 70.9595L54.1725 69.0634L53.6252 73.7087Z" stroke="#1AA166" stroke-width="1.37118"/>
<path d="M55.0823 83.3309L58.5722 88.9966L51.3874 88.8652L55.0823 83.3309Z" fill="#1EA54C"/>
<circle cx="38.4429" cy="74.8599" r="0.854485" transform="rotate(-68.7568 38.4429 74.8599)" fill="#1EA54C"/>
<circle cx="44.6383" cy="85.3361" r="1.53807" transform="rotate(-68.7568 44.6383 85.3361)" fill="#E7EFEF"/>
<circle cx="24.2755" cy="75.2593" r="1.02538" transform="rotate(-68.7568 24.2755 75.2593)" fill="#1EA54C"/>
</svg>
