<svg width="244" height="120" viewBox="0 0 244 120" fill="none" xmlns="http://www.w3.org/2000/svg">
<g clip-path="url(#clip0)">
<path d="M175.62 56.2846C175.62 86.2746 151.3 110.595 121.31 110.595C91.32 110.595 67 86.2746 67 56.2846C67 26.2846 91.32 1.97461 121.31 1.97461C151.3 1.97461 175.62 26.2846 175.62 56.2846Z" fill="#E7EFEF"/>
<path d="M89.73 41.5346V80.8046C89.73 82.0346 90.81 83.0246 92.14 83.0246H156.12C157.45 83.0246 158.53 82.0246 158.53 80.8046V41.5346L151.74 41.5946L124.14 63.0846L97.89 41.5346H89.73Z" fill="#1EA54C"/>
<path d="M151.74 41.5946L124.14 63.0846L97.9002 41.5346H89.7402V80.8046C89.7402 82.0346 90.8202 83.0246 92.1502 83.0246H156.13C157.46 83.0246 158.54 82.0246 158.54 80.8046V41.5346L151.74 41.5946ZM157.13 80.0746C157.13 81.2546 156.1 82.2046 154.82 82.2046H93.4002C92.1202 82.2046 91.0902 81.2546 91.0902 80.0746V42.3746H97.0902L124.14 64.6946L152.17 42.4146L157.14 42.3746V80.0746H157.13Z" fill="#1EA54C"/>
<path d="M89.8101 41.6246C89.8101 41.6246 117.64 73.2746 124.02 73.2746C129.75 73.2746 158.39 41.6646 158.39 41.6646C158.39 41.6646 157.28 42.3646 156.09 42.3646C144.3 42.3646 105.57 42.3646 91.7901 42.3646C90.8801 42.3646 89.8101 41.6246 89.8101 41.6246Z" fill="url(#paint0_linear)"/>
<path d="M130.97 57.7646L132.64 56.4646L155.69 79.2146L128.4 59.1246L130.97 57.7646Z" fill="url(#paint1_linear)"/>
<path d="M117.65 57.7346L115.62 56.0946L92.7998 79.6846L119.86 59.1246L117.65 57.7346Z" fill="url(#paint2_linear)"/>
<path d="M90.29 82.2146C90.29 82.2146 117.75 54.0046 124.13 54.0046C129.86 54.0046 157.98 82.2146 157.98 82.2146C157.98 82.2146 157.31 83.0246 156.12 83.0246C144.33 83.0246 105.6 83.0246 91.83 83.0246C90.91 83.0246 90.29 82.2146 90.29 82.2146Z" fill="#1EA54C"/>
<path d="M156.43 80.6946C156.14 80.8446 155.78 80.9646 155.34 80.9646C143.84 80.9646 106.06 80.9646 92.6298 80.9646C92.3098 80.9646 92.0298 80.8546 91.7998 80.7146C90.8498 81.6646 90.2998 82.2346 90.2998 82.2346C90.2998 82.2346 90.9198 83.0446 91.8398 83.0446C105.61 83.0446 144.35 83.0446 156.13 83.0446C157.32 83.0446 157.99 82.2346 157.99 82.2346C157.99 82.2346 157.41 81.6646 156.43 80.6946Z" fill="#1EA54C"/>
<path d="M157.89 82.2946C157.89 82.2946 129.77 54.0846 124.04 54.0846C117.66 54.0846 90.2002 82.2946 90.2002 82.2946C90.2002 82.2946 117.66 54.7746 124.04 54.7746C129.77 54.7646 157.89 82.2946 157.89 82.2946Z" fill="#1EA54C"/>
<path d="M89.73 41.5346C89.73 41.5346 117.8 70.6046 124.18 70.6046C129.91 70.6046 158.53 41.5346 158.53 41.5346C158.53 41.5346 157.36 41.5846 156.17 41.5846C144.38 41.5846 105.65 41.5846 91.88 41.5846C90.96 41.5846 89.73 41.5346 89.73 41.5346Z" fill="#1EA54C"/>
<path d="M158.53 41.5346C158.53 41.5346 157.35 41.5646 156.16 41.5646C144.37 41.5646 105.64 41.5646 91.87 41.5646C90.96 41.5646 89.73 41.5146 89.73 41.5146C89.73 41.5146 89.7 41.5046 91.11 42.9246C104.97 42.9246 145.37 42.8946 157.13 42.8946C157.13 42.9046 158.53 41.5346 158.53 41.5346Z" fill="#1EA54C"/>
<path d="M157.94 42.1246C157.94 42.1246 129.82 70.5246 124.09 70.5246C117.71 70.5246 89.9102 41.7346 89.9102 41.7346C89.9102 41.7346 117.75 68.5246 124.14 68.5246C129.87 68.5146 157.94 42.1246 157.94 42.1246Z" fill="#1EA54C"/>
<path d="M104.09 55.7546C111.64 63.3646 120.41 71.3946 123.76 71.3946C126.23 71.3946 132.97 66.2146 139.2 60.0546C132.76 65.7546 126.09 70.3346 123.76 70.3346C120.57 70.3446 111.92 63.0446 104.09 55.7546Z" fill="url(#paint3_linear)"/>
<path d="M155.94 66.5446L150.08 41.5646C136.63 41.5646 112.14 41.5646 97.9302 41.5646L97.8902 41.5346H97.8802H90.7302C90.3902 41.6146 90.0502 41.6946 89.7202 41.7746V80.8046C89.7202 81.3446 89.9302 81.8246 90.2702 82.2046C90.2202 82.2546 90.1902 82.2846 90.1902 82.2846C90.1902 82.2846 90.2202 82.2546 90.2702 82.2046C90.2702 82.2046 90.2702 82.2046 90.2702 82.2146C90.2702 82.2146 90.2802 82.2246 90.2802 82.2346L90.2702 82.2446C90.2702 82.2446 90.8902 83.0546 91.8102 83.0546C92.8602 83.0546 94.0702 83.0546 95.3902 83.0546C111.09 79.3746 143.58 71.7446 154.09 69.2846C155.25 69.0146 155.71 68.0646 155.71 68.0646C155.71 68.0646 155.7 68.0546 155.69 68.0546L155.7 68.0446C155.96 67.5846 156.06 67.0646 155.94 66.5446Z" fill="#EEF5F9"/>
<path d="M77.4502 41.4946L86.4202 79.7246C86.7002 80.9246 87.9802 81.6446 89.2702 81.3446L151.56 66.7246C152.85 66.4246 153.68 65.2046 153.39 64.0146L144.43 25.7746L137.83 27.3846L115.87 54.6146L85.4002 39.6346L77.4502 41.4946Z" fill="#1EA54C"/>
<path d="M137.83 27.3846L115.88 54.6146L85.4002 39.6246L77.4502 41.4846L86.4202 79.7146C86.7002 80.9146 87.9802 81.6346 89.2702 81.3346L151.56 66.7146C152.85 66.4146 153.67 65.1946 153.39 64.0046L144.43 25.7746L137.83 27.3846ZM151.88 63.6146C152.15 64.7646 151.36 65.9246 150.12 66.2246L90.3202 80.2546C89.0802 80.5446 87.8502 79.8546 87.5802 78.7046L78.9702 42.0046L84.8102 40.6346L116.24 56.1846L138.44 28.0946L143.27 26.9246L151.88 63.6146Z" fill="#1EA54C"/>
<path d="M77.5498 41.5646C77.5498 41.5646 111.87 66.0246 118.08 64.5646C123.66 63.2546 144.32 25.9346 144.32 25.9346C144.32 25.9346 143.39 26.8646 142.24 27.1346C130.76 29.8246 93.0498 38.6746 79.6398 41.8246C78.7598 42.0346 77.5498 41.5646 77.5498 41.5646Z" fill="url(#paint4_linear)"/>
<path d="M121.31 47.8646L122.64 46.2246L150.27 63.1046L119.12 49.7846L121.31 47.8646Z" fill="url(#paint5_linear)"/>
<path d="M108.34 50.8846L105.98 49.7446L89.1499 77.9346L110.8 51.7346L108.34 50.8846Z" fill="url(#paint6_linear)"/>
<path d="M87.29 80.9746C87.29 80.9746 107.58 47.2346 113.79 45.7846C119.37 44.4746 153.19 65.5146 153.19 65.5146C153.19 65.5146 152.72 66.4546 151.57 66.7346C140.09 69.4246 102.38 78.2746 88.98 81.4246C88.08 81.6246 87.29 80.9746 87.29 80.9746Z" fill="#1EA54C"/>
<path d="M151.33 64.3846C151.09 64.5946 150.76 64.8046 150.33 64.9046C139.14 67.5346 102.36 76.1646 89.2798 79.2346C88.9698 79.3046 88.6698 79.2646 88.4098 79.1746C87.7098 80.3246 87.2998 81.0046 87.2998 81.0046C87.2998 81.0046 88.0898 81.6546 88.9798 81.4446C102.39 78.2946 140.1 69.4446 151.57 66.7546C152.73 66.4846 153.19 65.5346 153.19 65.5346C153.19 65.5346 152.51 65.0946 151.33 64.3846Z" fill="#1EA54C"/>
<path d="M153.12 65.6046C153.12 65.6046 119.3 44.5646 113.72 45.8746C107.51 47.3346 87.2202 81.0646 87.2202 81.0646C87.2202 81.0646 107.66 47.9946 113.88 46.5346C119.46 45.2346 153.12 65.6046 153.12 65.6046Z" fill="#1EA54C"/>
<path d="M77.4502 41.4946C77.4502 41.4946 111.41 63.3846 117.63 61.9246C123.21 60.6146 144.43 25.7746 144.43 25.7746C144.43 25.7746 143.3 26.0846 142.14 26.3546C130.66 29.0446 92.9502 37.8946 79.5502 41.0446C78.6602 41.2546 77.4502 41.4946 77.4502 41.4946Z" fill="#1EA54C"/>
<path d="M144.43 25.7746C144.43 25.7746 143.29 26.0746 142.13 26.3446C130.66 29.0346 92.94 37.8846 79.54 41.0346C78.65 41.2446 77.44 41.4746 77.44 41.4746C77.44 41.4746 77.41 41.4746 79.1 42.5346C92.59 39.3646 131.92 30.1146 143.37 27.4246C143.38 27.4246 144.43 25.7746 144.43 25.7746Z" fill="#1EA54C"/>
<path d="M143.99 26.4846C143.99 26.4846 123.1 60.5546 117.52 61.8646C111.31 63.3246 77.6699 41.6446 77.6699 41.6446C77.6699 41.6446 110.9 61.3646 117.11 59.9046C122.7 58.5946 143.99 26.4846 143.99 26.4846Z" fill="#1EA54C"/>
<path d="M94.6802 52.0646C103.77 57.7546 114.14 63.5646 117.41 62.8046C119.82 62.2346 125.19 55.6546 129.85 48.2346C124.89 55.2546 119.44 61.2346 117.17 61.7746C114.06 62.4946 103.97 57.3646 94.6802 52.0646Z" fill="url(#paint7_linear)"/>
</g>
<path d="M192.5 26.2735L187.707 30.8892L194.697 32.5548L192.5 26.2735Z" fill="#1EA54C"/>
<path d="M49.1799 26.2735L53.9734 30.8892L46.983 32.5548L49.1799 26.2735Z" fill="#1EA54C"/>
<circle r="1.02538" transform="matrix(-0.118276 -0.992981 -0.992981 0.118276 205.038 28.5103)" fill="#1EA54C"/>
<circle cx="36.6419" cy="28.5103" r="1.02538" transform="rotate(-83.2074 36.6419 28.5103)" fill="#1EA54C"/>
<path d="M214.314 62.7016L218.644 62.7953L216.924 58.8202L214.314 62.7016Z" stroke="#E7EFEF" stroke-width="1.37118"/>
<path d="M217.977 35.1536L221.636 37.4716L222.218 33.1795L217.977 35.1536Z" stroke="#1AA166" stroke-width="1.37118"/>
<path d="M199.685 48.9103L193.212 47.3696L195.586 54.1521L199.685 48.9103Z" fill="#1EA54C"/>
<circle r="0.854485" transform="matrix(0.771757 -0.635918 -0.635918 -0.771757 221.637 49.9331)" fill="#1EA54C"/>
<circle r="1.53807" transform="matrix(0.771757 -0.635918 -0.635918 -0.771757 209.748 47.329)" fill="#E7EFEF"/>
<circle r="1.02538" transform="matrix(0.771757 -0.635918 -0.635918 -0.771757 204.576 60.6699)" fill="#1EA54C"/>
<path d="M27.3671 62.7016L23.0368 62.7953L24.757 58.8202L27.3671 62.7016Z" stroke="#E7EFEF" stroke-width="1.37118"/>
<path d="M23.7035 35.1536L20.0446 37.4716L19.4631 33.1795L23.7035 35.1536Z" stroke="#1AA166" stroke-width="1.37118"/>
<path d="M41.9953 48.9103L48.4689 47.3696L46.0946 54.1521L41.9953 48.9103Z" fill="#1EA54C"/>
<circle cx="20.0436" cy="49.9331" r="0.854485" transform="rotate(-140.512 20.0436 49.9331)" fill="#1EA54C"/>
<circle cx="31.9327" cy="47.329" r="1.53807" transform="rotate(-140.512 31.9327 47.329)" fill="#E7EFEF"/>
<circle cx="37.1049" cy="60.6699" r="1.02538" transform="rotate(-140.512 37.1049 60.6699)" fill="#1EA54C"/>
<path d="M213.072 85.7874L214.516 81.7041L210.202 82.0933L213.072 85.7874Z" stroke="#E7EFEF" stroke-width="1.37118"/>
<path d="M188.055 73.6833L191.402 70.9341L187.508 69.038L188.055 73.6833Z" stroke="#1AA166" stroke-width="1.37118"/>
<path d="M186.598 83.3055L183.108 88.9713L190.293 88.8398L186.598 83.3055Z" fill="#1EA54C"/>
<circle r="0.854485" transform="matrix(-0.362328 -0.932051 -0.932051 0.362328 203.238 74.8345)" fill="#1EA54C"/>
<circle r="1.53807" transform="matrix(-0.362328 -0.932051 -0.932051 0.362328 197.042 85.3107)" fill="#E7EFEF"/>
<circle r="1.02538" transform="matrix(-0.362328 -0.932051 -0.932051 0.362328 217.405 75.2339)" fill="#1EA54C"/>
<path d="M28.6091 85.7874L27.1644 81.7041L31.4782 82.0933L28.6091 85.7874Z" stroke="#E7EFEF" stroke-width="1.37118"/>
<path d="M53.6252 73.6833L50.2782 70.9341L54.1725 69.038L53.6252 73.6833Z" stroke="#1AA166" stroke-width="1.37118"/>
<path d="M55.0823 83.3055L58.5722 88.9713L51.3874 88.8398L55.0823 83.3055Z" fill="#1EA54C"/>
<circle cx="38.4429" cy="74.8345" r="0.854485" transform="rotate(-68.7568 38.4429 74.8345)" fill="#1EA54C"/>
<circle cx="44.6383" cy="85.3107" r="1.53807" transform="rotate(-68.7568 44.6383 85.3107)" fill="#E7EFEF"/>
<circle cx="24.2755" cy="75.2339" r="1.02538" transform="rotate(-68.7568 24.2755 75.2339)" fill="#1EA54C"/>
<defs>
<linearGradient id="paint0_linear" x1="75.6012" y1="34.8505" x2="171.074" y2="85.3128" gradientUnits="userSpaceOnUse">
<stop stop-color="#008249"/>
<stop offset="1" stop-color="#226045"/>
</linearGradient>
<linearGradient id="paint1_linear" x1="122.746" y1="51.5954" x2="167.517" y2="64.6959" gradientUnits="userSpaceOnUse">
<stop stop-color="#008249"/>
<stop offset="1" stop-color="#226045"/>
</linearGradient>
<linearGradient id="paint2_linear" x1="87.1933" y1="51.0456" x2="131.889" y2="63.552" gradientUnits="userSpaceOnUse">
<stop stop-color="#008249"/>
<stop offset="1" stop-color="#226045"/>
</linearGradient>
<linearGradient id="paint3_linear" x1="96.8155" y1="52.4071" x2="144.923" y2="78.7504" gradientUnits="userSpaceOnUse">
<stop stop-color="#008249"/>
<stop offset="1" stop-color="#226045"/>
</linearGradient>
<linearGradient id="paint4_linear" x1="63.7159" y1="17.6531" x2="164.738" y2="60.1765" gradientUnits="userSpaceOnUse">
<stop stop-color="#008249"/>
<stop offset="1" stop-color="#226045"/>
</linearGradient>
<linearGradient id="paint5_linear" x1="112.666" y1="42.6118" x2="158.798" y2="63.3778" gradientUnits="userSpaceOnUse">
<stop stop-color="#008249"/>
<stop offset="1" stop-color="#226045"/>
</linearGradient>
<linearGradient id="paint6_linear" x1="84.6643" y1="43.7111" x2="121.917" y2="50.6899" gradientUnits="userSpaceOnUse">
<stop stop-color="#008249"/>
<stop offset="1" stop-color="#226045"/>
</linearGradient>
<linearGradient id="paint7_linear" x1="87.3934" y1="45.1018" x2="134.017" y2="72.4281" gradientUnits="userSpaceOnUse">
<stop stop-color="#008249"/>
<stop offset="1" stop-color="#226045"/>
</linearGradient>
<clipPath id="clip0">
<rect width="108.62" height="108.62" fill="white" transform="translate(67 1.97461)"/>
</clipPath>
</defs>
</svg>
