<svg width="244" height="120" viewBox="0 0 244 120" fill="none" xmlns="http://www.w3.org/2000/svg">
<g clip-path="url(#clip0)">
<path d="M175.62 56.31C175.62 86.3 151.3 110.62 121.31 110.62C91.32 110.62 67 86.3 67 56.31C67 26.31 91.32 2 121.31 2C151.3 2 175.62 26.31 175.62 56.31Z" fill="#1EA54C"/>
<path d="M89.73 41.56V80.83C89.73 82.06 90.81 83.05 92.14 83.05H156.12C157.45 83.05 158.53 82.05 158.53 80.83V41.56L151.74 41.62L124.14 63.11L97.89 41.56H89.73Z" fill="#E7EFEF"/>
<path d="M151.74 41.62L124.14 63.11L97.9002 41.56H89.7402V80.83C89.7402 82.06 90.8202 83.05 92.1502 83.05H156.13C157.46 83.05 158.54 82.05 158.54 80.83V41.56L151.74 41.62ZM157.13 80.1C157.13 81.28 156.1 82.23 154.82 82.23H93.4002C92.1202 82.23 91.0902 81.28 91.0902 80.1V42.4H97.0902L124.14 64.72L152.17 42.44L157.14 42.4V80.1H157.13Z" fill="#E7EFEF"/>
<path d="M89.8101 41.65C89.8101 41.65 117.64 73.3 124.02 73.3C129.75 73.3 158.39 41.69 158.39 41.69C158.39 41.69 157.28 42.39 156.09 42.39C144.3 42.39 105.57 42.39 91.7901 42.39C90.8801 42.39 89.8101 41.65 89.8101 41.65Z" fill="#95AEB2"/>
<path d="M130.97 57.79L132.64 56.49L155.69 79.24L128.4 59.15L130.97 57.79Z" fill="#95AEB2"/>
<path d="M117.65 57.76L115.62 56.12L92.7998 79.71L119.86 59.15L117.65 57.76Z" fill="#95AEB2"/>
<path d="M90.29 82.24C90.29 82.24 117.75 54.03 124.13 54.03C129.86 54.03 157.98 82.24 157.98 82.24C157.98 82.24 157.31 83.05 156.12 83.05C144.33 83.05 105.6 83.05 91.83 83.05C90.91 83.05 90.29 82.24 90.29 82.24Z" fill="#E7EFEF"/>
<path d="M156.43 80.72C156.14 80.87 155.78 80.99 155.34 80.99C143.84 80.99 106.06 80.99 92.6298 80.99C92.3098 80.99 92.0298 80.88 91.7998 80.74C90.8498 81.69 90.2998 82.26 90.2998 82.26C90.2998 82.26 90.9198 83.07 91.8398 83.07C105.61 83.07 144.35 83.07 156.13 83.07C157.32 83.07 157.99 82.26 157.99 82.26C157.99 82.26 157.41 81.69 156.43 80.72Z" fill="#E7EFEF"/>
<path d="M157.89 82.32C157.89 82.32 129.77 54.11 124.04 54.11C117.66 54.11 90.2002 82.32 90.2002 82.32C90.2002 82.32 117.66 54.8 124.04 54.8C129.77 54.79 157.89 82.32 157.89 82.32Z" fill="#E7EFEF"/>
<path d="M89.73 41.56C89.73 41.56 117.8 70.63 124.18 70.63C129.91 70.63 158.53 41.56 158.53 41.56C158.53 41.56 157.36 41.61 156.17 41.61C144.38 41.61 105.65 41.61 91.88 41.61C90.96 41.61 89.73 41.56 89.73 41.56Z" fill="#E7EFEF"/>
<path d="M158.53 41.56C158.53 41.56 157.35 41.59 156.16 41.59C144.37 41.59 105.64 41.59 91.87 41.59C90.96 41.59 89.73 41.54 89.73 41.54C89.73 41.54 89.7 41.53 91.11 42.95C104.97 42.95 145.37 42.92 157.13 42.92C157.13 42.93 158.53 41.56 158.53 41.56Z" fill="#E7EFEF"/>
<path d="M157.94 42.15C157.94 42.15 129.82 70.55 124.09 70.55C117.71 70.55 89.9102 41.76 89.9102 41.76C89.9102 41.76 117.75 68.55 124.14 68.55C129.87 68.54 157.94 42.15 157.94 42.15Z" fill="#E7EFEF"/>
<path d="M104.09 55.78C111.64 63.39 120.41 71.42 123.76 71.42C126.23 71.42 132.97 66.24 139.2 60.08C132.76 65.78 126.09 70.36 123.76 70.36C120.57 70.37 111.92 63.07 104.09 55.78Z" fill="#ABB1B2"/>
<path d="M155.94 66.57L150.08 41.59C136.63 41.59 112.14 41.59 97.9302 41.59L97.8902 41.56H97.8802H90.7302C90.3902 41.64 90.0502 41.72 89.7202 41.8V80.83C89.7202 81.37 89.9302 81.85 90.2702 82.23C90.2202 82.28 90.1902 82.31 90.1902 82.31C90.1902 82.31 90.2202 82.28 90.2702 82.23C90.2702 82.23 90.2702 82.23 90.2702 82.24C90.2702 82.24 90.2802 82.25 90.2802 82.26L90.2702 82.27C90.2702 82.27 90.8902 83.08 91.8102 83.08C92.8602 83.08 94.0702 83.08 95.3902 83.08C111.09 79.4 143.58 71.77 154.09 69.31C155.25 69.04 155.71 68.09 155.71 68.09C155.71 68.09 155.7 68.08 155.69 68.08L155.7 68.07C155.96 67.61 156.06 67.09 155.94 66.57Z" fill="#EEF5F9"/>
<path d="M77.4502 41.52L86.4202 79.75C86.7002 80.95 87.9802 81.67 89.2702 81.37L151.56 66.75C152.85 66.45 153.68 65.23 153.39 64.04L144.43 25.8L137.83 27.41L115.87 54.64L85.4002 39.66L77.4502 41.52Z" fill="#E7EFEF"/>
<path d="M137.83 27.41L115.88 54.64L85.4002 39.65L77.4502 41.51L86.4202 79.74C86.7002 80.94 87.9802 81.66 89.2702 81.36L151.56 66.74C152.85 66.44 153.67 65.22 153.39 64.03L144.43 25.8L137.83 27.41ZM151.88 63.64C152.15 64.79 151.36 65.95 150.12 66.25L90.3202 80.28C89.0802 80.57 87.8502 79.88 87.5802 78.73L78.9702 42.03L84.8102 40.66L116.24 56.21L138.44 28.12L143.27 26.95L151.88 63.64Z" fill="#E7EFEF"/>
<path d="M77.5498 41.59C77.5498 41.59 111.87 66.05 118.08 64.59C123.66 63.28 144.32 25.96 144.32 25.96C144.32 25.96 143.39 26.89 142.24 27.16C130.76 29.85 93.0498 38.7 79.6398 41.85C78.7598 42.06 77.5498 41.59 77.5498 41.59Z" fill="#95AEB2"/>
<path d="M121.31 47.89L122.64 46.25L150.27 63.13L119.12 49.81L121.31 47.89Z" fill="#95AEB2"/>
<path d="M108.34 50.91L105.98 49.77L89.1499 77.96L110.8 51.76L108.34 50.91Z" fill="#95AEB2"/>
<path d="M87.29 81C87.29 81 107.58 47.26 113.79 45.81C119.37 44.5 153.19 65.54 153.19 65.54C153.19 65.54 152.72 66.48 151.57 66.76C140.09 69.45 102.38 78.3 88.98 81.45C88.08 81.65 87.29 81 87.29 81Z" fill="#E7EFEF"/>
<path d="M151.33 64.41C151.09 64.62 150.76 64.83 150.33 64.93C139.14 67.56 102.36 76.19 89.2798 79.26C88.9698 79.33 88.6698 79.29 88.4098 79.2C87.7098 80.35 87.2998 81.03 87.2998 81.03C87.2998 81.03 88.0898 81.68 88.9798 81.47C102.39 78.32 140.1 69.47 151.57 66.78C152.73 66.51 153.19 65.56 153.19 65.56C153.19 65.56 152.51 65.12 151.33 64.41Z" fill="#E7EFEF"/>
<path d="M153.12 65.63C153.12 65.63 119.3 44.59 113.72 45.9C107.51 47.36 87.2202 81.09 87.2202 81.09C87.2202 81.09 107.66 48.02 113.88 46.56C119.46 45.26 153.12 65.63 153.12 65.63Z" fill="#E7EFEF"/>
<path d="M77.4502 41.52C77.4502 41.52 111.41 63.41 117.63 61.95C123.21 60.64 144.43 25.8 144.43 25.8C144.43 25.8 143.3 26.11 142.14 26.38C130.66 29.07 92.9502 37.92 79.5502 41.07C78.6602 41.28 77.4502 41.52 77.4502 41.52Z" fill="#E7EFEF"/>
<path d="M144.43 25.8C144.43 25.8 143.29 26.1 142.13 26.37C130.66 29.06 92.94 37.91 79.54 41.06C78.65 41.27 77.44 41.5 77.44 41.5C77.44 41.5 77.41 41.5 79.1 42.56C92.59 39.39 131.92 30.14 143.37 27.45C143.38 27.45 144.43 25.8 144.43 25.8Z" fill="#E7EFEF"/>
<path d="M143.99 26.51C143.99 26.51 123.1 60.58 117.52 61.89C111.31 63.35 77.6699 41.67 77.6699 41.67C77.6699 41.67 110.9 61.39 117.11 59.93C122.7 58.62 143.99 26.51 143.99 26.51Z" fill="#E7EFEF"/>
<path d="M94.6802 52.09C103.77 57.78 114.14 63.59 117.41 62.83C119.82 62.26 125.19 55.68 129.85 48.26C124.89 55.28 119.44 61.26 117.17 61.8C114.06 62.52 103.97 57.39 94.6802 52.09Z" fill="#ABB1B2"/>
</g>
<path d="M192.5 26.2989L187.707 30.9145L194.697 32.5802L192.5 26.2989Z" fill="#1EA54C"/>
<path d="M49.1799 26.2989L53.9734 30.9145L46.983 32.5802L49.1799 26.2989Z" fill="#1EA54C"/>
<circle r="1.02538" transform="matrix(-0.118276 -0.992981 -0.992981 0.118276 205.038 28.5357)" fill="#1EA54C"/>
<circle cx="36.6419" cy="28.5357" r="1.02538" transform="rotate(-83.2074 36.6419 28.5357)" fill="#1EA54C"/>
<path d="M214.314 62.727L218.644 62.8207L216.924 58.8456L214.314 62.727Z" stroke="#E7EFEF" stroke-width="1.37118"/>
<path d="M217.977 35.179L221.636 37.497L222.218 33.2049L217.977 35.179Z" stroke="#1AA166" stroke-width="1.37118"/>
<path d="M199.685 48.9357L193.212 47.395L195.586 54.1775L199.685 48.9357Z" fill="#1EA54C"/>
<circle r="0.854485" transform="matrix(0.771757 -0.635918 -0.635918 -0.771757 221.637 49.9585)" fill="#1EA54C"/>
<circle r="1.53807" transform="matrix(0.771757 -0.635918 -0.635918 -0.771757 209.748 47.3544)" fill="#E7EFEF"/>
<circle r="1.02538" transform="matrix(0.771757 -0.635918 -0.635918 -0.771757 204.576 60.6953)" fill="#1EA54C"/>
<path d="M27.3671 62.727L23.0368 62.8207L24.757 58.8456L27.3671 62.727Z" stroke="#E7EFEF" stroke-width="1.37118"/>
<path d="M23.7035 35.179L20.0446 37.497L19.4631 33.2049L23.7035 35.179Z" stroke="#1AA166" stroke-width="1.37118"/>
<path d="M41.9953 48.9357L48.4689 47.395L46.0946 54.1775L41.9953 48.9357Z" fill="#1EA54C"/>
<circle cx="20.0436" cy="49.9585" r="0.854485" transform="rotate(-140.512 20.0436 49.9585)" fill="#1EA54C"/>
<circle cx="31.9327" cy="47.3544" r="1.53807" transform="rotate(-140.512 31.9327 47.3544)" fill="#E7EFEF"/>
<circle cx="37.1049" cy="60.6953" r="1.02538" transform="rotate(-140.512 37.1049 60.6953)" fill="#1EA54C"/>
<path d="M213.072 85.8128L214.516 81.7295L210.202 82.1187L213.072 85.8128Z" stroke="#E7EFEF" stroke-width="1.37118"/>
<path d="M188.055 73.7087L191.402 70.9595L187.508 69.0634L188.055 73.7087Z" stroke="#1AA166" stroke-width="1.37118"/>
<path d="M186.598 83.3309L183.108 88.9966L190.293 88.8652L186.598 83.3309Z" fill="#1EA54C"/>
<circle r="0.854485" transform="matrix(-0.362328 -0.932051 -0.932051 0.362328 203.238 74.8599)" fill="#1EA54C"/>
<circle r="1.53807" transform="matrix(-0.362328 -0.932051 -0.932051 0.362328 197.042 85.3361)" fill="#E7EFEF"/>
<circle r="1.02538" transform="matrix(-0.362328 -0.932051 -0.932051 0.362328 217.405 75.2593)" fill="#1EA54C"/>
<path d="M28.6091 85.8128L27.1644 81.7295L31.4782 82.1187L28.6091 85.8128Z" stroke="#E7EFEF" stroke-width="1.37118"/>
<path d="M53.6252 73.7087L50.2782 70.9595L54.1725 69.0634L53.6252 73.7087Z" stroke="#1AA166" stroke-width="1.37118"/>
<path d="M55.0823 83.3309L58.5722 88.9966L51.3874 88.8652L55.0823 83.3309Z" fill="#1EA54C"/>
<circle cx="38.4429" cy="74.8599" r="0.854485" transform="rotate(-68.7568 38.4429 74.8599)" fill="#1EA54C"/>
<circle cx="44.6383" cy="85.3361" r="1.53807" transform="rotate(-68.7568 44.6383 85.3361)" fill="#E7EFEF"/>
<circle cx="24.2755" cy="75.2593" r="1.02538" transform="rotate(-68.7568 24.2755 75.2593)" fill="#1EA54C"/>
<defs>
<clipPath id="clip0">
<rect width="108.62" height="108.62" fill="white" transform="translate(67 2)"/>
</clipPath>
</defs>
</svg>
