<svg width="109" height="109" viewBox="0 0 109 109" fill="none" xmlns="http://www.w3.org/2000/svg">
<path d="M108.62 54.31C108.62 84.3 84.3 108.62 54.31 108.62C24.32 108.62 0 84.3 0 54.31C0 24.31 24.32 0 54.31 0C84.3 0 108.62 24.31 108.62 54.31Z" fill="#1EA54C"/>
<path d="M22.73 39.56V78.83C22.73 80.06 23.81 81.05 25.14 81.05H89.12C90.45 81.05 91.53 80.05 91.53 78.83V39.56L84.74 39.62L57.14 61.11L30.89 39.56H22.73Z" fill="#E7EFEF"/>
<path d="M84.7402 39.62L57.1402 61.11L30.9002 39.56H22.7402V78.83C22.7402 80.06 23.8202 81.05 25.1502 81.05H89.1302C90.4602 81.05 91.5402 80.05 91.5402 78.83V39.56L84.7402 39.62ZM90.1302 78.1C90.1302 79.28 89.1002 80.23 87.8202 80.23H26.4002C25.1202 80.23 24.0902 79.28 24.0902 78.1V40.4H30.0902L57.1402 62.72L85.1702 40.44L90.1402 40.4V78.1H90.1302Z" fill="#E7EFEF"/>
<path d="M22.8101 39.65C22.8101 39.65 50.6401 71.3 57.0201 71.3C62.7501 71.3 91.3901 39.69 91.3901 39.69C91.3901 39.69 90.2801 40.39 89.0901 40.39C77.3001 40.39 38.5701 40.39 24.7901 40.39C23.8801 40.39 22.8101 39.65 22.8101 39.65Z" fill="#95AEB2"/>
<path d="M63.9699 55.79L65.6399 54.49L88.6899 77.24L61.3999 57.15L63.9699 55.79Z" fill="#95AEB2"/>
<path d="M50.6498 55.76L48.6198 54.12L25.7998 77.71L52.8598 57.15L50.6498 55.76Z" fill="#95AEB2"/>
<path d="M23.29 80.24C23.29 80.24 50.75 52.03 57.13 52.03C62.86 52.03 90.98 80.24 90.98 80.24C90.98 80.24 90.31 81.05 89.12 81.05C77.33 81.05 38.6 81.05 24.83 81.05C23.91 81.05 23.29 80.24 23.29 80.24Z" fill="#E7EFEF"/>
<path d="M89.4298 78.72C89.1398 78.87 88.7798 78.99 88.3398 78.99C76.8398 78.99 39.0598 78.99 25.6298 78.99C25.3098 78.99 25.0298 78.88 24.7998 78.74C23.8498 79.69 23.2998 80.26 23.2998 80.26C23.2998 80.26 23.9198 81.07 24.8398 81.07C38.6098 81.07 77.3498 81.07 89.1298 81.07C90.3198 81.07 90.9898 80.26 90.9898 80.26C90.9898 80.26 90.4098 79.69 89.4298 78.72Z" fill="#E7EFEF"/>
<path d="M90.8902 80.32C90.8902 80.32 62.7702 52.11 57.0402 52.11C50.6602 52.11 23.2002 80.32 23.2002 80.32C23.2002 80.32 50.6602 52.8 57.0402 52.8C62.7702 52.79 90.8902 80.32 90.8902 80.32Z" fill="#E7EFEF"/>
<path d="M22.73 39.56C22.73 39.56 50.8 68.63 57.18 68.63C62.91 68.63 91.53 39.56 91.53 39.56C91.53 39.56 90.36 39.61 89.17 39.61C77.38 39.61 38.65 39.61 24.88 39.61C23.96 39.61 22.73 39.56 22.73 39.56Z" fill="#E7EFEF"/>
<path d="M91.53 39.56C91.53 39.56 90.35 39.59 89.16 39.59C77.37 39.59 38.64 39.59 24.87 39.59C23.96 39.59 22.73 39.54 22.73 39.54C22.73 39.54 22.7 39.53 24.11 40.95C37.97 40.95 78.37 40.92 90.13 40.92C90.13 40.93 91.53 39.56 91.53 39.56Z" fill="#E7EFEF"/>
<path d="M90.9402 40.15C90.9402 40.15 62.8202 68.55 57.0902 68.55C50.7102 68.55 22.9102 39.76 22.9102 39.76C22.9102 39.76 50.7502 66.55 57.1402 66.55C62.8702 66.54 90.9402 40.15 90.9402 40.15Z" fill="#E7EFEF"/>
<path d="M37.0898 53.78C44.6398 61.39 53.4098 69.42 56.7598 69.42C59.2298 69.42 65.9698 64.24 72.1998 58.08C65.7598 63.78 59.0898 68.36 56.7598 68.36C53.5698 68.37 44.9198 61.07 37.0898 53.78Z" fill="#ABB1B2"/>
<path d="M88.9402 64.57L83.0802 39.59C69.6302 39.59 45.1402 39.59 30.9302 39.59L30.8902 39.56H30.8802H23.7302C23.3902 39.64 23.0502 39.72 22.7202 39.8V78.83C22.7202 79.37 22.9302 79.85 23.2702 80.23C23.2202 80.28 23.1902 80.31 23.1902 80.31C23.1902 80.31 23.2202 80.28 23.2702 80.23C23.2702 80.23 23.2702 80.23 23.2702 80.24C23.2702 80.24 23.2802 80.25 23.2802 80.26L23.2702 80.27C23.2702 80.27 23.8902 81.08 24.8102 81.08C25.8602 81.08 27.0702 81.08 28.3902 81.08C44.0902 77.4 76.5802 69.77 87.0902 67.31C88.2502 67.04 88.7102 66.09 88.7102 66.09C88.7102 66.09 88.7002 66.08 88.6902 66.08L88.7002 66.07C88.9602 65.61 89.0602 65.09 88.9402 64.57Z" fill="#EEF5F9"/>
<path d="M10.4502 39.52L19.4202 77.75C19.7002 78.95 20.9802 79.67 22.2702 79.37L84.5602 64.75C85.8502 64.45 86.6802 63.23 86.3902 62.04L77.4302 23.8L70.8302 25.41L48.8702 52.64L18.4002 37.66L10.4502 39.52Z" fill="#E7EFEF"/>
<path d="M70.8302 25.41L48.8802 52.64L18.4002 37.65L10.4502 39.51L19.4202 77.74C19.7002 78.94 20.9802 79.66 22.2702 79.36L84.5602 64.74C85.8502 64.44 86.6702 63.22 86.3902 62.03L77.4302 23.8L70.8302 25.41ZM84.8802 61.64C85.1502 62.79 84.3602 63.95 83.1202 64.25L23.3202 78.28C22.0802 78.57 20.8502 77.88 20.5802 76.73L11.9702 40.03L17.8102 38.66L49.2402 54.21L71.4402 26.12L76.2702 24.95L84.8802 61.64Z" fill="#E7EFEF"/>
<path d="M10.5498 39.59C10.5498 39.59 44.8698 64.05 51.0798 62.59C56.6598 61.28 77.3198 23.96 77.3198 23.96C77.3198 23.96 76.3898 24.89 75.2398 25.16C63.7598 27.85 26.0498 36.7 12.6398 39.85C11.7598 40.06 10.5498 39.59 10.5498 39.59Z" fill="#95AEB2"/>
<path d="M54.3101 45.89L55.6401 44.25L83.2701 61.13L52.1201 47.81L54.3101 45.89Z" fill="#95AEB2"/>
<path d="M41.3399 48.91L38.9799 47.77L22.1499 75.96L43.7999 49.76L41.3399 48.91Z" fill="#95AEB2"/>
<path d="M20.29 79C20.29 79 40.58 45.26 46.79 43.81C52.37 42.5 86.19 63.54 86.19 63.54C86.19 63.54 85.72 64.48 84.57 64.76C73.09 67.45 35.38 76.3 21.98 79.45C21.08 79.65 20.29 79 20.29 79Z" fill="#E7EFEF"/>
<path d="M84.3298 62.41C84.0898 62.62 83.7598 62.83 83.3298 62.93C72.1398 65.56 35.3598 74.19 22.2798 77.26C21.9698 77.33 21.6698 77.29 21.4098 77.2C20.7098 78.35 20.2998 79.03 20.2998 79.03C20.2998 79.03 21.0898 79.68 21.9798 79.47C35.3898 76.32 73.0998 67.47 84.5698 64.78C85.7298 64.51 86.1898 63.56 86.1898 63.56C86.1898 63.56 85.5098 63.12 84.3298 62.41Z" fill="#E7EFEF"/>
<path d="M86.1202 63.63C86.1202 63.63 52.3002 42.59 46.7202 43.9C40.5102 45.36 20.2202 79.09 20.2202 79.09C20.2202 79.09 40.6602 46.02 46.8802 44.56C52.4602 43.26 86.1202 63.63 86.1202 63.63Z" fill="#E7EFEF"/>
<path d="M10.4502 39.52C10.4502 39.52 44.4102 61.41 50.6302 59.95C56.2102 58.64 77.4302 23.8 77.4302 23.8C77.4302 23.8 76.3002 24.11 75.1402 24.38C63.6602 27.07 25.9502 35.92 12.5502 39.07C11.6602 39.28 10.4502 39.52 10.4502 39.52Z" fill="#E7EFEF"/>
<path d="M77.43 23.8C77.43 23.8 76.29 24.1 75.13 24.37C63.66 27.06 25.94 35.91 12.54 39.06C11.65 39.27 10.44 39.5 10.44 39.5C10.44 39.5 10.41 39.5 12.1 40.56C25.59 37.39 64.92 28.14 76.37 25.45C76.38 25.45 77.43 23.8 77.43 23.8Z" fill="#E7EFEF"/>
<path d="M76.9899 24.51C76.9899 24.51 56.0999 58.58 50.5199 59.89C44.3099 61.35 10.6699 39.67 10.6699 39.67C10.6699 39.67 43.8999 59.39 50.1099 57.93C55.6999 56.62 76.9899 24.51 76.9899 24.51Z" fill="#E7EFEF"/>
<path d="M27.6802 50.09C36.7702 55.78 47.1402 61.59 50.4102 60.83C52.8202 60.26 58.1902 53.68 62.8502 46.26C57.8902 53.28 52.4402 59.26 50.1702 59.8C47.0602 60.52 36.9702 55.39 27.6802 50.09Z" fill="#ABB1B2"/>
</svg>
