<svg width="329" height="197" viewBox="0 0 329 197" fill="none" xmlns="http://www.w3.org/2000/svg">
<path opacity="0.5" d="M197.36 51.1691C197.36 51.1691 202.565 32.5077 214.064 22.6643C215.592 21.3563 217.925 22.6983 217.577 24.6786C217.571 24.7113 217.565 24.7453 217.558 24.7794C216.908 28.1499 203.786 40.7738 197.36 51.1691Z" fill="#AFCDFB"/>
<path opacity="0.5" d="M195.336 56.4291C195.336 56.4291 208.716 34.1632 226.933 26.2093C228.043 25.7241 229.377 26.1681 229.904 27.259C230.246 27.9697 230.29 29.0038 229.553 30.4948C227.586 34.471 206.908 45.6891 195.336 56.4291Z" fill="#AFCDFB"/>
<path d="M83.6297 137.323C83.6297 137.323 85.9268 137.587 87.7057 137.481C89.9304 137.347 92.6719 137.292 93.1815 137.884C93.6898 138.475 93.6898 138.475 92.7031 138.997C91.9336 139.403 88.9664 140.709 86.9632 140.091C84.9586 139.471 82.4003 139.597 82.4003 139.597L83.6297 137.323Z" fill="#FFB27D"/>
<path d="M59.1013 115.456C59.1013 115.456 63.3817 136.641 68.4771 138.258C70.9914 139.057 81.9814 140.55 85.207 140.575C85.207 140.575 85.9566 139.889 85.6102 137.305C85.6102 137.305 73.9813 133.807 72.2294 131.632C69.6214 128.396 72.9009 117.74 69.6924 114.745C66.4838 111.751 61.3175 110.689 59.1013 115.456Z" fill="#33976B"/>
<path d="M61.1372 194.402H61.7548C62.3738 194.402 62.8792 193.896 62.8792 193.279V159.084C62.8792 158.466 62.3723 157.961 61.7548 157.961H61.1372C60.5182 157.961 60.0128 158.467 60.0128 159.084V193.279C60.0113 193.896 60.5182 194.402 61.1372 194.402Z" fill="#E7EFEF"/>
<path d="M48.584 196.798C49.9328 194.011 55.1786 191.931 61.4452 191.931C67.7118 191.931 72.9577 194.011 74.3064 196.798H48.584Z" fill="#E7EFEF"/>
<path d="M52.0098 187.344H70.882C71.0808 187.344 71.2426 187.182 71.2426 186.983V186.236C71.2426 186.037 71.0808 185.875 70.882 185.875H52.0098C51.811 185.875 51.6492 186.037 51.6492 186.236V186.983C51.6492 187.182 51.811 187.344 52.0098 187.344Z" fill="#E7EFEF"/>
<path d="M59.7756 154.638C60.6545 156.128 61.671 157.525 62.7201 158.847C65.9585 162.933 69.4851 166.302 70.0984 169.485C70.2205 170.119 70.415 170.803 70.6677 171.524C70.9246 172.253 71.2412 173.02 71.6075 173.813C72.9818 176.797 75.0376 180.139 77.089 183.177C80.6369 188.43 83.9732 192.812 83.9732 192.812L90.0908 192.551C89.8451 191.938 87.1775 184.687 83.6084 175.823C82.1588 172.226 80.617 168.399 79.1306 164.707C78.9318 164.215 78.7345 163.724 78.5386 163.238C78.0843 162.109 77.637 160.996 77.1998 159.914C73.8478 151.591 71.1788 144.965 71.1788 144.965C71.1788 144.965 57.7824 139.895 56.3925 143.181C55.2439 145.889 56.1781 148.543 59.7756 154.638Z" fill="#707070"/>
<path d="M84.1635 191.7C84.1635 191.7 84.4758 196.744 85.4526 196.817C85.5817 196.827 90.4059 196.827 90.4059 196.827L96.5632 196.791C96.5632 196.791 96.5235 195.309 94.7233 194.995C92.9231 194.682 89.9105 193.418 88.8201 191.04C87.6744 188.539 84.1635 191.7 84.1635 191.7Z" fill="#E7EFEF"/>
<path d="M69.9976 177.29C69.9976 177.29 65.7427 180.022 66.1558 180.909C66.2112 181.027 68.5622 185.236 68.5622 185.236L71.5947 190.591C71.5947 190.591 72.8711 189.833 72.2677 188.11C71.6643 186.386 71.2994 183.142 72.8455 181.032C74.4711 178.812 69.9976 177.29 69.9976 177.29Z" fill="#E7EFEF"/>
<path d="M75.9902 142.708C75.9902 142.708 94.1228 155.722 96.1018 159.81C97.6479 163.004 73.0088 183.301 73.0088 183.301C73.0088 183.301 69.4197 179.749 68.9512 178.029C68.9512 178.029 77.4383 165.842 84.1635 161.886C86.1653 160.708 60.1561 157.832 57.3408 153.455C54.5255 149.079 56.0773 143.284 56.0773 143.284L75.9902 142.708Z" fill="#979797"/>
<path d="M46.7881 161.873H75.9079C78.0516 161.873 79.805 160.121 79.805 157.978V157.349C79.805 155.207 78.0516 153.454 75.9079 153.454H46.7881C44.6443 153.454 42.8896 155.206 42.8896 157.349V157.978C42.8896 160.121 44.6443 161.873 46.7881 161.873Z" fill="#2E3D4C"/>
<path d="M67.9802 105.881C69.6313 106.903 70.5413 108.2 70.5413 108.2C66.5136 109.241 59.8353 105.512 59.8353 105.512C59.8353 105.512 62.4277 103.771 63.3888 99.9467C63.4371 99.7537 63.4811 99.5551 63.5208 99.3537C63.6472 98.7097 63.7253 98.0117 63.7395 97.2599L65.5894 98.9168L68.6659 101.672C68.6659 101.672 68.5963 102.815 68.2116 104.781C68.1448 105.12 68.0682 105.489 67.9802 105.881Z" fill="#FFB27D"/>
<path d="M76.2642 141.999C76.2557 142.04 76.2429 142.081 76.2287 142.124C75.8411 143.212 69.9777 146.906 66.0181 148.373C63.5464 149.289 54.9714 151.335 54.4063 149.573C53.7518 147.53 56.1483 132.639 55.5705 124.885C54.8904 115.406 57.5169 106.779 61.1684 103.963C61.4438 103.76 61.9904 104.299 63.572 105.049C65.0329 105.742 66.6471 105.939 68.0142 105.639L69.238 106.691C70.9318 108.211 72.7916 110.288 73.6349 113.47C74.1502 115.422 74.5407 118.513 74.8303 121.986C74.941 123.332 75.039 124.736 75.1227 126.153C75.2519 128.412 75.3669 130.69 75.4223 132.855C75.4237 132.896 75.4251 132.937 75.4251 132.98L75.4266 133.058C75.4493 133.276 75.4535 133.514 75.455 133.733C75.4621 133.951 75.4677 134.17 75.4734 134.385C75.5132 136.081 75.5103 137.654 75.57 139.014C75.5998 139.697 75.7375 140.186 75.8837 140.576C76.0328 140.973 76.1918 141.264 76.2571 141.544C76.2897 141.691 76.2997 141.84 76.2642 141.999Z" fill="#3AA978"/>
<path d="M68.6659 101.669C68.6659 101.669 68.5963 102.812 68.2116 104.778C65.2075 103.808 63.8445 101.097 63.3888 99.9467C63.2596 99.6219 63.2028 99.4204 63.2028 99.4204C63.2028 99.4204 63.3192 99.3949 63.5208 99.3523C63.9425 99.263 64.7389 99.0942 65.5894 98.914L68.6659 101.669Z" fill="#ED975D"/>
<path d="M69.5844 102.638C69.5844 102.638 62.943 102.469 63.112 98.338C63.2809 94.2071 62.537 91.404 66.7848 91.3373C71.0326 91.2707 71.7907 92.8807 72.0704 94.2724C72.3486 95.6654 71.3151 102.575 69.5844 102.638Z" fill="#FFB27D"/>
<path d="M93.3536 138.19L93.9315 138.377L98.847 123.26L98.2691 123.072L93.3536 138.19Z" fill="#1EA54C"/>
<path d="M77.2469 138.018L93.938 138.375L93.9593 137.378L77.2682 137.021L77.2469 138.018Z" fill="#1EA54C"/>
<path d="M62.2857 90.6607C62.2445 90.5912 62.1309 90.5217 61.8654 90.4592C61.8654 90.4592 62.1039 90.3628 62.3936 90.4067C62.5157 90.0422 62.8323 89.4166 63.5052 89.3698C63.5052 89.3698 63.1261 89.4932 63.0111 89.8819C63.8928 89.2492 65.5893 88.9754 69.9535 90.1074C75.7034 91.6012 73.1195 94.9916 72.2861 95.3022C71.4513 95.6129 69.7676 94.0567 68.3407 93.9191C66.9139 93.7815 66.2864 95.7647 65.7597 95.959C65.233 96.1534 65.5084 95.6938 64.9136 95.2881C64.3201 94.8823 64.0688 95.9406 64.1313 96.6683C64.1938 97.396 63.1446 98.1564 63.1446 98.1564C63.1446 98.1564 63.1446 98.1564 62.4191 97.0329C61.6936 95.9094 61.5744 91.6735 62.1366 90.8735C62.1849 90.8039 62.2346 90.733 62.2857 90.6607Z" fill="#2C3A64"/>
<path d="M75.8823 140.575C74.2695 140.314 70.2872 139.516 67.3953 137.708C62.1764 134.444 59.1013 117.876 59.1013 117.876L67.276 128.337L75.462 134.323L75.4734 134.384C75.5132 136.079 75.5103 137.652 75.5699 139.013C75.5998 139.696 75.7375 140.184 75.8823 140.575Z" fill="#33976B"/>
<path d="M83.6538 132.894C83.6538 132.894 84.2331 133.087 84.9103 132.894C85.5861 132.702 87.9059 132.123 88.292 132.316C88.6782 132.509 89.8864 133.475 90.176 133.668C90.4656 133.861 90.9 134.682 90.9 134.682C90.6331 134.876 89.9119 134.214 89.5485 134.166C89.1864 134.117 86.286 135.14 85.4881 135.044C84.6902 134.947 83.4835 134.585 83.4835 134.585L83.6538 132.894Z" fill="#FFB27D"/>
<path d="M88.4638 133.792C88.4638 133.836 89.256 135.071 90.0482 134.848L89.3696 133.92L88.4638 133.792Z" fill="#FFB27D"/>
<path d="M84.9088 132.894C84.9088 132.894 85.9069 132.232 86.2561 131.893C86.2561 131.893 86.4166 131.999 86.3995 132.147C86.3711 132.394 86.0602 132.802 86.0602 132.802L84.9088 132.894Z" fill="#FFB27D"/>
<path d="M67.4066 109.621C63.1091 105.949 56.6608 110.105 58.2069 115.541C60 121.842 63.4612 132.238 67.0219 133.248C69.5589 133.967 80.5901 135.12 83.8157 135.044C83.8157 135.044 84.4134 135.272 83.9874 132.697C83.9874 132.697 71.8915 128.964 70.5655 126.507C69.8556 125.19 70.8054 112.599 67.506 109.706C67.4733 109.678 67.4393 109.65 67.4066 109.621Z" fill="#3AA978"/>
<path d="M251.932 101.974C251.932 101.974 260.266 110.607 260.659 113.857C261.053 117.107 256.667 122.179 256.667 122.179L251.932 101.974Z" fill="#067946"/>
<path d="M248.167 191.449C248.167 191.449 247.873 196.028 246.986 196.092C246.868 196.101 242.488 196.091 242.488 196.091L236.898 196.047C236.898 196.047 236.937 194.7 238.573 194.419C240.208 194.139 242.946 192.997 243.941 190.84C244.986 188.572 248.167 191.449 248.167 191.449Z" fill="#E7EFEF"/>
<path d="M260.62 191.476C260.62 191.476 260.326 196.055 259.438 196.119C259.321 196.127 254.941 196.117 254.941 196.117L249.35 196.073C249.35 196.073 249.39 194.727 251.025 194.446C252.661 194.165 255.398 193.024 256.393 190.867C257.438 188.599 260.62 191.476 260.62 191.476Z" fill="#E7EFEF"/>
<path d="M242.081 142.212C242.081 142.212 243.523 151.56 248.942 168.16C254.361 184.76 255.09 191.945 255.09 191.945L260.942 191.794C260.942 191.794 261.031 173.664 258.535 165.317C256.039 156.971 258.058 135.242 258.058 135.242L242.081 142.212Z" fill="#818181"/>
<path d="M239.249 135.715C239.249 135.715 239.012 149.797 241.412 167.092C243.813 184.387 242.971 191.725 242.971 191.725L248.81 191.933C248.81 191.933 252.338 174.643 251.356 165.987C250.374 157.331 256.2 136.3 256.2 136.3L239.249 135.715Z" fill="#979797"/>
<path d="M250.625 102.785L247.509 104.817L243.014 103.97C243.076 103.607 243.377 102.104 243.65 100.742C243.667 100.662 243.683 100.582 243.698 100.503C243.932 99.3452 244.134 98.3493 244.134 98.3493L248.338 96.5066L249.905 95.82C249.901 95.8441 249.78 97.1052 249.765 97.2896C249.465 100.561 250.625 102.785 250.625 102.785Z" fill="#FFB27D"/>
<path d="M244.171 101.743C244.259 101.706 249.59 100.147 250.168 100.338C250.746 100.531 251.086 101.65 251.086 101.65L242.366 103.601C242.368 103.601 243.056 102.209 244.171 101.743Z" fill="#067946"/>
<path d="M258.44 137.495C257.529 141.61 242.497 142.066 238.63 138.321C238.19 137.894 238.173 135.912 238.344 133.241C238.681 128.022 239.741 120.17 239.791 116.158C239.815 114.22 240.086 112.24 240.444 110.441C241.208 106.608 242.365 103.601 242.365 103.601C242.365 103.601 249.712 101.245 251.085 101.652C257.701 103.608 259.353 133.381 258.44 137.495Z" fill="#1CA267"/>
<path d="M238.346 133.241C238.682 128.022 239.743 120.17 239.792 116.158C239.817 114.22 240.088 112.24 240.446 110.441L244.864 109.672C244.864 109.672 249.143 127.304 238.346 133.241Z" fill="#067946"/>
<path d="M240.752 125.969C240.752 125.969 241.052 126.688 240.418 127.171C239.785 127.651 239.373 128.433 239.517 129.005C239.66 129.576 241.045 130.513 241.526 130.362C242.007 130.213 242.987 129.463 242.882 129.161C242.777 128.859 243.546 126.517 242.375 125.611C241.206 124.706 240.752 125.969 240.752 125.969Z" fill="#FFB27D"/>
<path d="M245.741 102.551C245.741 102.551 241.432 103.347 237.989 108.393C234.547 113.439 232.281 117.191 232.908 119.014C233.536 120.837 239.286 127.166 240.278 127.168C241.272 127.17 242.876 126.451 242.97 124.827C242.97 124.827 238.926 118.743 239.727 117.835C240.069 117.446 245.004 113.461 245.703 115.269C246.863 118.258 245.741 102.551 245.741 102.551Z" fill="#1CA267"/>
<path d="M249.451 97.3492C248.525 98.9083 245.085 100.252 243.651 100.744C243.668 100.663 243.684 100.584 243.699 100.504C243.934 99.3466 244.135 98.3508 244.135 98.3508L248.339 96.508C249.268 96.4981 249.833 96.7066 249.451 97.3492Z" fill="#FCA56B"/>
<path d="M242.552 98.0926C242.552 98.0926 249.313 100.216 250.572 95.9889C251.832 91.7615 253.551 89.1882 249.287 87.6533C245.024 86.1184 243.701 87.4817 242.937 88.791C242.175 90.1004 240.826 97.4315 242.552 98.0926Z" fill="#FFB27D"/>
<path d="M243.204 88.3839C243.204 88.3839 243.624 93.3077 244.643 93.0964C245.663 92.885 246.587 92.729 246.435 94.2114C246.283 95.6938 244.866 97.406 248.005 97.6741C251.144 97.9436 255.676 89.862 254.817 88.3286C252.338 83.904 239.619 82.9834 243.204 88.3839Z" fill="#163560"/>
<path d="M170.908 118.599C170.783 118.777 170.251 119.625 170.933 120.581C170.978 120.641 171.006 120.69 171.024 120.732C179.203 125.641 203.733 145.504 203.733 159.504V188.507H129.699V159.493C129.699 145.403 154.564 125.226 162.563 120.581C162.564 120.581 162.564 120.581 162.564 120.581C162.821 120.222 162.905 119.879 162.905 119.58C162.905 118.982 162.564 118.564 162.564 118.564C154.546 113.816 129.699 93.7872 129.699 79.6979V50.698H203.733V79.7121C203.733 93.7773 178.949 113.914 170.908 118.599Z" fill="#71C5A0"/>
<path d="M207.979 195.978H124.864V192.404C124.864 190.252 126.609 188.508 128.762 188.508H204.241C206.306 188.508 207.979 190.181 207.979 192.243V195.978Z" fill="#1CA267"/>
<path d="M150.891 161.289C150.512 167.78 151.748 181.783 151.635 188.508H129.699V159.494C129.699 145.405 154.564 125.227 162.563 120.583C162.564 120.583 162.564 120.583 162.564 120.583C162.821 120.224 162.905 119.88 162.905 119.581C162.905 118.984 162.564 118.565 162.564 118.565C154.546 113.817 129.699 93.7886 129.699 79.6993V50.698H144.375L154.851 53.5621V76.4976C154.851 76.4976 153.813 83.1039 156.411 89.5924C159.009 96.081 164.586 116.899 164.499 119.602C164.413 122.306 151.542 150.161 150.891 161.289Z" fill="#4FB688"/>
<path d="M194.14 69.9778C189.652 70.0459 181.936 70.8545 169.453 74.0009C160.906 76.1543 146.171 74.5328 138.377 73.4164C135.642 73.0249 133.196 75.1428 133.196 77.9034V81.2455C133.196 90.4563 157.999 110.409 164.558 115.523C165.551 116.297 166.132 117.486 166.132 118.746V169.965C166.132 171.714 165.269 173.342 163.835 174.345C158.677 177.952 149.986 188.508 149.986 188.508H182.858C182.858 188.508 174.043 178.321 169.095 174.539C167.965 173.677 167.299 172.341 167.299 170.921V118.731C167.299 117.479 167.868 116.294 168.848 115.511C175.278 110.366 199.538 90.34 199.538 81.1363V75.2889C199.538 72.3227 197.109 69.9324 194.14 69.9778Z" fill="#1CA267"/>
<path d="M204.102 53.5607H128.602C126.538 53.5607 124.864 51.8882 124.864 49.8256V46.0905H207.979V49.6866C207.979 51.8272 206.245 53.5607 204.102 53.5607Z" fill="#1CA267"/>
<path d="M161.299 42.5285C159.566 45.543 157.385 46.7076 157.385 46.7076H148.315C148.315 46.7076 162.623 40.229 161.299 42.5285Z" fill="#233862"/>
<path d="M154.333 65.8541C154.096 66.125 154.066 66.4272 154.184 66.7506C154.184 66.752 154.185 66.7534 154.187 66.7548C154.402 67.3521 155.118 68.0188 155.948 68.6855C156.055 68.7706 156.149 68.8487 156.231 68.921C156.252 68.9395 156.274 68.9593 156.295 68.9778C156.312 68.9919 156.327 69.0075 156.343 69.0217C157.117 69.7353 156.826 69.8984 158.217 71.3454C159.803 72.9937 160.895 73.0235 161.206 72.8731C161.468 72.7455 160.934 71.8702 160.342 70.8871C160.314 70.8403 160.286 70.7921 160.256 70.7439C160.178 70.6134 160.098 70.48 160.02 70.3495C159.327 69.1664 159.505 68.6118 159.669 66.8513C159.803 65.42 161.897 58.8591 161.897 58.8591L158.857 58.3356C158.857 58.3356 157.942 63.5602 156.934 64.366C156.394 64.7944 155.791 64.8001 155.273 65.1178C155.236 65.1405 155.2 65.1632 155.165 65.1859C154.869 65.3817 154.57 65.5831 154.333 65.8541Z" fill="#FFB27D"/>
<path d="M154.333 65.854C154.096 66.125 154.066 66.4271 154.184 66.7506C154.184 66.752 154.185 66.7534 154.187 66.7548C154.452 67.3521 155.148 68.0159 155.951 68.6798C156.056 68.7664 156.149 68.8472 156.231 68.921C156.252 68.9394 156.274 68.9593 156.295 68.9777C156.312 68.9919 156.327 69.0075 156.343 69.0217C157.117 69.7353 156.826 69.8984 158.217 71.3454C159.803 72.9937 160.895 73.0235 161.206 72.8732C161.468 72.7455 160.935 71.8702 160.342 70.8871C160.034 70.7737 158.599 70.192 157.516 68.8061C156.56 67.589 155.924 66.0243 155.274 65.1178C155.237 65.1405 155.202 65.1632 155.166 65.1859C154.869 65.3817 154.57 65.5831 154.333 65.854Z" fill="#233862"/>
<path d="M178.84 63.9575C179.027 64.8952 180.365 64.7391 181.86 64.3731C183.353 64.0085 182.998 64.4426 185.125 64.2071C187.252 63.9717 187.896 63.1801 187.96 62.8638C188.018 62.5829 186.968 62.485 185.84 62.3545C185.698 62.3389 185.557 62.3204 185.415 62.3034C184.143 62.1445 183.21 61.3232 182.054 60.6494C180.96 60.011 179.325 57.4108 179.325 57.4108L176.409 57.642C176.409 57.642 177.94 59.9642 178.532 60.9742C178.88 61.5686 178.861 62.3531 178.819 62.9602C178.796 63.2907 178.775 63.6269 178.84 63.9575Z" fill="#FFB27D"/>
<path d="M181.86 64.3745C183.353 64.0099 182.998 64.444 185.125 64.2085C187.252 63.9731 187.896 63.1815 187.96 62.8652C188.018 62.5843 186.968 62.4864 185.84 62.3559L185.83 62.3772C185.83 62.3772 184.556 63.2808 182.785 63.3233C181.343 63.3588 179.815 62.946 178.819 62.9616C178.796 63.2907 178.775 63.6283 178.841 63.9589C179.029 64.8951 180.366 64.7391 181.86 64.3745Z" fill="#233862"/>
<path d="M167.665 45.3259L164.94 52.6557L161.38 62.2268C161.38 62.2268 160.415 62.3204 159.489 62.0537C158.637 61.8083 157.661 61.1643 157.661 61.1643C157.661 61.1643 158.649 50.8881 160.493 44.9897C160.966 43.4761 161.495 42.2504 162.079 41.561C164.937 38.1862 167.665 45.3259 167.665 45.3259Z" fill="#233862"/>
<path d="M164.893 33.685C163.107 33.1091 158.013 33.8482 152.896 34.8497L151.824 33.0836L140.772 32.2211C140.772 32.2211 137.124 40.3027 139.121 45.4521C139.414 46.2096 140.14 46.5288 141.135 46.5444L141.137 46.5458C141.137 46.5458 147.731 46.7061 149.868 46.7061C155.365 46.7061 161.501 42.9313 162.295 42.7724C163.594 42.5128 164.113 45.1088 165.412 47.8353C166.711 50.5618 177.625 59.9088 177.625 59.9088C177.625 59.9088 179.301 59.9258 179.996 59.6662C180.741 59.3868 181.013 59.0236 181.013 59.0236C181.013 59.0236 168.92 34.983 164.893 33.685Z" fill="#1D2833"/>
<path d="M150.652 0.655001C149.823 0.162757 149.016 0.0904078 148.526 0.106012C148.173 0.117361 147.821 0.0833163 147.47 0.0365034C143.282 -0.525252 140.762 5.55475 140.613 7.39748C140.34 10.7935 138.542 11.3113 136.01 13.4378C130.936 17.702 132.424 22.6585 135.198 24.4998C136.863 25.6049 139.798 24.4998 139.798 24.4998C139.839 24.5282 147.824 20.0398 151.759 17.8751C157.661 17.0381 153.021 2.06506 150.652 0.655001Z" fill="#233862"/>
<path d="M148.461 16.0323C148.478 16.0436 146.524 16.7104 145.218 16.1316C143.989 15.5883 143.059 13.5682 143.076 13.5668C143.635 13.5413 144.249 13.0533 144.721 9.84729L144.96 9.93241L148.962 11.3708C148.962 11.3708 148.672 12.6547 148.485 13.876C148.327 14.9045 148.242 15.8876 148.461 16.0323Z" fill="#FFB27D"/>
<path d="M148.963 11.3738C148.963 11.3738 148.674 12.6576 148.486 13.879C146.188 13.4661 145.285 11.1766 144.961 9.9339L148.963 11.3738Z" fill="#ED975D"/>
<path d="M149.56 12.6476C149.56 12.6476 144.082 11.9128 144.594 8.51244C145.103 5.11211 144.741 2.72607 148.259 3.05234C151.777 3.37719 152.26 4.77733 152.367 5.95332C152.472 7.12791 150.996 12.7511 149.56 12.6476Z" fill="#FFB27D"/>
<path d="M152.166 4.08793C152.166 4.08793 148.661 7.10665 146.276 7.35065C143.891 7.59464 142.988 6.82861 142.988 6.82861C142.988 6.82861 144.393 5.66254 145.239 3.7801C145.489 3.22543 146.016 2.84525 146.622 2.79277C148.325 2.64665 151.553 2.57856 152.166 4.08793Z" fill="#233862"/>
<path d="M149.974 3.81697C149.974 3.81697 151.147 4.95041 151.516 5.79021C151.872 6.60163 151.979 8.54082 151.695 9.31111C151.695 9.31111 153.522 5.76042 152.487 4.03543C151.393 2.20831 149.974 3.81697 149.974 3.81697Z" fill="#233862"/>
<path d="M153.074 24.0941C152.907 35.1717 153.028 32.8566 151.816 33.9078C151.523 34.1603 150.703 34.3121 149.621 34.383C146.222 34.6086 140.246 34.0482 140.019 33.4212C139.236 31.2494 139.789 30.5741 139.135 27.249C139.067 26.8958 138.983 26.5128 138.884 26.0957C138.338 23.8118 137.807 23.0344 139.742 19.366C141.497 16.0423 143.32 13.3456 143.485 13.442C148.114 16.1884 148.488 13.8804 148.488 13.8804C148.488 13.8804 153.154 18.6907 153.074 24.0941Z" fill="white"/>
<path d="M164.939 52.6557L161.38 62.2268C161.38 62.2268 160.415 62.3204 159.489 62.0537C158.637 61.8083 157.661 61.1643 157.661 61.1643C157.661 61.1643 158.649 50.8881 160.493 44.9897L164.939 52.6557Z" fill="#1D2833"/>
<path d="M148.485 13.879C148.485 13.879 153.25 14.6861 153.809 16.736C154.368 18.7858 157.661 30.8338 157.661 30.8338C157.661 30.8338 155.239 31.2678 154.12 30.15C153.001 29.0322 150.227 19.7788 150.227 19.7788L148.485 13.879Z" fill="white"/>
<path d="M149.619 34.3816C146.22 34.6072 140.245 34.0468 140.018 33.4198C139.234 31.248 139.788 30.5727 139.133 27.2476L140.773 22.6344C140.773 22.6344 140.502 27.7711 142.018 29.123C143.533 30.4734 148.227 31.7317 148.963 32.8595C149.318 33.4028 149.551 33.9461 149.619 34.3816Z" fill="#EBF3FF"/>
<path d="M145.725 32.221C145.725 32.221 149.078 31.4749 149.619 31.7727C150.16 32.0706 151.483 33.153 151.648 33.5303C151.814 33.9077 150.443 33.2438 149.997 33.1246C149.709 33.0466 148.948 33.3105 148.573 33.4367C146.99 33.9644 146.02 33.692 146.02 33.692L145.725 32.221Z" fill="#FFB27D"/>
<path d="M143.479 13.4392C143.479 13.4392 138.976 13.7158 137.417 15.8891C135.222 18.9475 130.869 31.98 133.364 33.7191C136.173 35.6768 146.151 34.2312 146.151 34.2312C146.151 34.2312 146.483 32.6807 146.02 31.9303C145.559 31.1799 138.051 29.9684 137.705 29.6223C137.359 29.2762 142.037 22.8713 142.037 21.8329C142.037 20.7945 143.479 13.4392 143.479 13.4392Z" fill="white"/>
<path d="M149.783 32.7048C149.783 32.7048 150.485 33.6099 150.715 33.7191C150.945 33.8269 151.094 33.8 151.094 33.8L150.622 32.9488L149.783 32.7048Z" fill="#FFB27D"/>
<path d="M149.619 31.7728L151.662 32.7644C151.662 32.7644 151.576 32.9063 151.324 32.8949C151.073 32.8836 150.439 32.6509 150.439 32.6509L149.619 31.7728Z" fill="#FFB27D"/>
<path d="M150.715 35.1065H166.876L171.737 23.0274H155.602L150.715 35.1065Z" fill="url(#paint0_linear)"/>
<path d="M167.066 34.6356H145.725V35.1065H166.876L167.066 34.6356Z" fill="#1EA54C"/>
<path d="M162.797 29.0676C162.919 28.6435 162.674 28.2988 162.248 28.2988C161.823 28.2988 161.379 28.6435 161.258 29.0676C161.136 29.4918 161.382 29.8365 161.808 29.8365C162.232 29.8365 162.675 29.4918 162.797 29.0676Z" fill="white"/>
<path d="M328.627 196.851H0.373383C0.168944 196.851 0 196.683 0 196.478V196.35C0 196.146 0.167525 195.977 0.373383 195.977H328.627C328.831 195.977 329 196.144 329 196.35V196.478C328.999 196.683 328.831 196.851 328.627 196.851Z" fill="#2E3552"/>
<defs>
<linearGradient id="paint0_linear" x1="146.36" y1="20.4421" x2="178.084" y2="33.9093" gradientUnits="userSpaceOnUse">
<stop stop-color="#008249"/>
<stop offset="1" stop-color="#226045"/>
</linearGradient>
</defs>
</svg>
