<svg width="320" height="227" viewBox="0 0 320 227" fill="none" xmlns="http://www.w3.org/2000/svg">
<path d="M57.1602 202.044L59.7578 197.047H61.248L57.8164 203.288V207H56.5039V203.288L53.0723 197.047H54.5762L57.1602 202.044ZM61.5488 203.233C61.5488 202.509 61.6901 201.857 61.9727 201.278C62.2598 200.7 62.6562 200.253 63.1621 199.938C63.6725 199.624 64.2536 199.467 64.9053 199.467C65.9124 199.467 66.7259 199.815 67.3457 200.513C67.9701 201.21 68.2822 202.137 68.2822 203.295V203.384C68.2822 204.104 68.1432 204.751 67.8652 205.325C67.5918 205.895 67.1976 206.339 66.6826 206.658C66.1722 206.977 65.5843 207.137 64.9189 207.137C63.9163 207.137 63.1029 206.788 62.4785 206.091C61.8587 205.394 61.5488 204.471 61.5488 203.322V203.233ZM62.8203 203.384C62.8203 204.204 63.0094 204.863 63.3877 205.359C63.7705 205.856 64.2809 206.104 64.9189 206.104C65.5615 206.104 66.0719 205.854 66.4502 205.353C66.8285 204.847 67.0176 204.14 67.0176 203.233C67.0176 202.422 66.8239 201.766 66.4365 201.265C66.0537 200.759 65.5433 200.506 64.9053 200.506C64.2809 200.506 63.7773 200.754 63.3945 201.251C63.0117 201.748 62.8203 202.459 62.8203 203.384ZM74.4346 206.269C73.9424 206.847 73.2201 207.137 72.2676 207.137C71.4792 207.137 70.8776 206.909 70.4629 206.453C70.0527 205.993 69.8454 205.314 69.8408 204.416V199.604H71.1055V204.382C71.1055 205.503 71.5612 206.063 72.4727 206.063C73.4388 206.063 74.0814 205.703 74.4004 204.983V199.604H75.665V207H74.4619L74.4346 206.269ZM80.7578 203.24C80.7578 202.105 81.0267 201.194 81.5645 200.506C82.1022 199.813 82.8063 199.467 83.6768 199.467C84.5426 199.467 85.2285 199.763 85.7344 200.355V196.5H86.999V207H85.8369L85.7754 206.207C85.2695 206.827 84.5654 207.137 83.6631 207.137C82.8063 207.137 82.1068 206.786 81.5645 206.084C81.0267 205.382 80.7578 204.466 80.7578 203.336V203.24ZM82.0225 203.384C82.0225 204.222 82.1956 204.879 82.542 205.353C82.8883 205.826 83.3669 206.063 83.9775 206.063C84.7796 206.063 85.3652 205.703 85.7344 204.983V201.586C85.3561 200.889 84.7751 200.54 83.9912 200.54C83.3714 200.54 82.8883 200.779 82.542 201.258C82.1956 201.736 82.0225 202.445 82.0225 203.384ZM88.6328 203.233C88.6328 202.509 88.7741 201.857 89.0566 201.278C89.3438 200.7 89.7402 200.253 90.2461 199.938C90.7565 199.624 91.3376 199.467 91.9893 199.467C92.9964 199.467 93.8099 199.815 94.4297 200.513C95.054 201.21 95.3662 202.137 95.3662 203.295V203.384C95.3662 204.104 95.2272 204.751 94.9492 205.325C94.6758 205.895 94.2816 206.339 93.7666 206.658C93.2562 206.977 92.6683 207.137 92.0029 207.137C91.0003 207.137 90.1868 206.788 89.5625 206.091C88.9427 205.394 88.6328 204.471 88.6328 203.322V203.233ZM89.9043 203.384C89.9043 204.204 90.0934 204.863 90.4717 205.359C90.8545 205.856 91.3649 206.104 92.0029 206.104C92.6455 206.104 93.1559 205.854 93.5342 205.353C93.9124 204.847 94.1016 204.14 94.1016 203.233C94.1016 202.422 93.9079 201.766 93.5205 201.265C93.1377 200.759 92.6273 200.506 91.9893 200.506C91.3649 200.506 90.8613 200.754 90.4785 201.251C90.0957 201.748 89.9043 202.459 89.9043 203.384ZM98.1484 199.604L98.1895 200.533C98.7546 199.822 99.4928 199.467 100.404 199.467C101.967 199.467 102.756 200.349 102.77 202.112V207H101.505V202.105C101.5 201.572 101.377 201.178 101.136 200.923C100.899 200.668 100.527 200.54 100.021 200.54C99.6113 200.54 99.2513 200.649 98.9414 200.868C98.6315 201.087 98.39 201.374 98.2168 201.729V207H96.9521V199.604H98.1484ZM106.393 197.812V199.604H107.773V200.581H106.393V205.168C106.393 205.464 106.454 205.688 106.577 205.838C106.7 205.984 106.91 206.057 107.206 206.057C107.352 206.057 107.552 206.029 107.808 205.975V207C107.475 207.091 107.151 207.137 106.837 207.137C106.272 207.137 105.846 206.966 105.559 206.624C105.271 206.282 105.128 205.797 105.128 205.168V200.581H103.781V199.604H105.128V197.812H106.393ZM113.994 200.499C114.555 199.811 115.284 199.467 116.182 199.467C117.745 199.467 118.533 200.349 118.547 202.112V207H117.282V202.105C117.278 201.572 117.155 201.178 116.913 200.923C116.676 200.668 116.305 200.54 115.799 200.54C115.389 200.54 115.029 200.649 114.719 200.868C114.409 201.087 114.167 201.374 113.994 201.729V207H112.729V196.5H113.994V200.499ZM125.007 207C124.934 206.854 124.875 206.594 124.829 206.221C124.241 206.831 123.539 207.137 122.724 207.137C121.994 207.137 121.395 206.932 120.926 206.521C120.461 206.107 120.229 205.583 120.229 204.949C120.229 204.179 120.52 203.582 121.104 203.158C121.691 202.73 122.516 202.516 123.578 202.516H124.809V201.935C124.809 201.493 124.676 201.142 124.412 200.882C124.148 200.618 123.758 200.485 123.243 200.485C122.792 200.485 122.414 200.599 122.108 200.827C121.803 201.055 121.65 201.331 121.65 201.654H120.379C120.379 201.285 120.509 200.93 120.769 200.588C121.033 200.242 121.388 199.968 121.835 199.768C122.286 199.567 122.781 199.467 123.318 199.467C124.171 199.467 124.838 199.681 125.321 200.109C125.804 200.533 126.055 201.119 126.073 201.866V205.271C126.073 205.95 126.16 206.49 126.333 206.891V207H125.007ZM122.908 206.036C123.305 206.036 123.681 205.934 124.036 205.729C124.392 205.523 124.649 205.257 124.809 204.929V203.411H123.817C122.268 203.411 121.493 203.865 121.493 204.771C121.493 205.168 121.625 205.478 121.89 205.701C122.154 205.924 122.493 206.036 122.908 206.036ZM130.387 205.284L132.219 199.604H133.511L130.858 207H129.895L127.215 199.604H128.507L130.387 205.284ZM137.701 207.137C136.699 207.137 135.883 206.809 135.254 206.152C134.625 205.492 134.311 204.61 134.311 203.507V203.274C134.311 202.541 134.45 201.887 134.728 201.312C135.01 200.734 135.402 200.283 135.903 199.959C136.409 199.631 136.956 199.467 137.544 199.467C138.506 199.467 139.253 199.784 139.786 200.417C140.319 201.05 140.586 201.957 140.586 203.138V203.664H135.575C135.593 204.393 135.805 204.983 136.211 205.435C136.621 205.881 137.141 206.104 137.77 206.104C138.216 206.104 138.594 206.013 138.904 205.831C139.214 205.649 139.485 205.407 139.718 205.106L140.49 205.708C139.87 206.66 138.941 207.137 137.701 207.137ZM137.544 200.506C137.034 200.506 136.605 200.693 136.259 201.066C135.912 201.436 135.698 201.955 135.616 202.625H139.321V202.529C139.285 201.887 139.112 201.39 138.802 201.039C138.492 200.684 138.073 200.506 137.544 200.506ZM150.095 207C150.022 206.854 149.963 206.594 149.917 206.221C149.329 206.831 148.627 207.137 147.812 207.137C147.082 207.137 146.483 206.932 146.014 206.521C145.549 206.107 145.316 205.583 145.316 204.949C145.316 204.179 145.608 203.582 146.191 203.158C146.779 202.73 147.604 202.516 148.666 202.516H149.896V201.935C149.896 201.493 149.764 201.142 149.5 200.882C149.236 200.618 148.846 200.485 148.331 200.485C147.88 200.485 147.502 200.599 147.196 200.827C146.891 201.055 146.738 201.331 146.738 201.654H145.467C145.467 201.285 145.597 200.93 145.856 200.588C146.121 200.242 146.476 199.968 146.923 199.768C147.374 199.567 147.868 199.467 148.406 199.467C149.258 199.467 149.926 199.681 150.409 200.109C150.892 200.533 151.143 201.119 151.161 201.866V205.271C151.161 205.95 151.248 206.49 151.421 206.891V207H150.095ZM147.996 206.036C148.393 206.036 148.769 205.934 149.124 205.729C149.479 205.523 149.737 205.257 149.896 204.929V203.411H148.905C147.356 203.411 146.581 203.865 146.581 204.771C146.581 205.168 146.713 205.478 146.978 205.701C147.242 205.924 147.581 206.036 147.996 206.036ZM158.332 197.812V199.604H159.713V200.581H158.332V205.168C158.332 205.464 158.394 205.688 158.517 205.838C158.64 205.984 158.849 206.057 159.146 206.057C159.291 206.057 159.492 206.029 159.747 205.975V207C159.414 207.091 159.091 207.137 158.776 207.137C158.211 207.137 157.785 206.966 157.498 206.624C157.211 206.282 157.067 205.797 157.067 205.168V200.581H155.721V199.604H157.067V197.812H158.332ZM164.266 207.137C163.263 207.137 162.447 206.809 161.818 206.152C161.189 205.492 160.875 204.61 160.875 203.507V203.274C160.875 202.541 161.014 201.887 161.292 201.312C161.575 200.734 161.966 200.283 162.468 199.959C162.974 199.631 163.521 199.467 164.108 199.467C165.07 199.467 165.817 199.784 166.351 200.417C166.884 201.05 167.15 201.957 167.15 203.138V203.664H162.14C162.158 204.393 162.37 204.983 162.775 205.435C163.186 205.881 163.705 206.104 164.334 206.104C164.781 206.104 165.159 206.013 165.469 205.831C165.779 205.649 166.05 205.407 166.282 205.106L167.055 205.708C166.435 206.66 165.505 207.137 164.266 207.137ZM164.108 200.506C163.598 200.506 163.17 200.693 162.823 201.066C162.477 201.436 162.263 201.955 162.181 202.625H165.886V202.529C165.849 201.887 165.676 201.39 165.366 201.039C165.056 200.684 164.637 200.506 164.108 200.506ZM173.187 207C173.114 206.854 173.054 206.594 173.009 206.221C172.421 206.831 171.719 207.137 170.903 207.137C170.174 207.137 169.575 206.932 169.105 206.521C168.641 206.107 168.408 205.583 168.408 204.949C168.408 204.179 168.7 203.582 169.283 203.158C169.871 202.73 170.696 202.516 171.758 202.516H172.988V201.935C172.988 201.493 172.856 201.142 172.592 200.882C172.327 200.618 171.938 200.485 171.423 200.485C170.972 200.485 170.593 200.599 170.288 200.827C169.983 201.055 169.83 201.331 169.83 201.654H168.559C168.559 201.285 168.688 200.93 168.948 200.588C169.213 200.242 169.568 199.968 170.015 199.768C170.466 199.567 170.96 199.467 171.498 199.467C172.35 199.467 173.018 199.681 173.501 200.109C173.984 200.533 174.235 201.119 174.253 201.866V205.271C174.253 205.95 174.34 206.49 174.513 206.891V207H173.187ZM171.088 206.036C171.484 206.036 171.86 205.934 172.216 205.729C172.571 205.523 172.829 205.257 172.988 204.929V203.411H171.997C170.448 203.411 169.673 203.865 169.673 204.771C169.673 205.168 169.805 205.478 170.069 205.701C170.334 205.924 170.673 206.036 171.088 206.036ZM177.425 199.604L177.459 200.424C178.001 199.786 178.733 199.467 179.653 199.467C180.688 199.467 181.392 199.863 181.766 200.656C182.012 200.301 182.331 200.014 182.723 199.795C183.119 199.576 183.586 199.467 184.124 199.467C185.746 199.467 186.571 200.326 186.599 202.044V207H185.334V202.119C185.334 201.59 185.213 201.196 184.972 200.937C184.73 200.672 184.325 200.54 183.755 200.54C183.285 200.54 182.896 200.681 182.586 200.964C182.276 201.242 182.096 201.618 182.046 202.092V207H180.774V202.153C180.774 201.078 180.248 200.54 179.195 200.54C178.366 200.54 177.799 200.893 177.493 201.6V207H176.229V199.604H177.425ZM198.534 205.257L199.956 199.604H201.221L199.067 207H198.042L196.244 201.395L194.494 207H193.469L191.322 199.604H192.58L194.036 205.141L195.759 199.604H196.777L198.534 205.257ZM203.777 200.499C204.338 199.811 205.067 199.467 205.965 199.467C207.528 199.467 208.316 200.349 208.33 202.112V207H207.065V202.105C207.061 201.572 206.938 201.178 206.696 200.923C206.459 200.668 206.088 200.54 205.582 200.54C205.172 200.54 204.812 200.649 204.502 200.868C204.192 201.087 203.951 201.374 203.777 201.729V207H202.513V196.5H203.777V200.499ZM212.644 205.147L214.366 199.604H215.72L212.746 208.142C212.286 209.372 211.554 209.987 210.552 209.987L210.312 209.967L209.841 209.878V208.853L210.183 208.88C210.611 208.88 210.944 208.793 211.181 208.62C211.422 208.447 211.62 208.13 211.775 207.67L212.056 206.918L209.417 199.604H210.798L212.644 205.147ZM221.523 199.604L221.564 200.533C222.13 199.822 222.868 199.467 223.779 199.467C225.342 199.467 226.131 200.349 226.145 202.112V207H224.88V202.105C224.875 201.572 224.752 201.178 224.511 200.923C224.274 200.668 223.902 200.54 223.396 200.54C222.986 200.54 222.626 200.649 222.316 200.868C222.007 201.087 221.765 201.374 221.592 201.729V207H220.327V199.604H221.523ZM227.717 203.233C227.717 202.509 227.858 201.857 228.141 201.278C228.428 200.7 228.824 200.253 229.33 199.938C229.84 199.624 230.422 199.467 231.073 199.467C232.08 199.467 232.894 199.815 233.514 200.513C234.138 201.21 234.45 202.137 234.45 203.295V203.384C234.45 204.104 234.311 204.751 234.033 205.325C233.76 205.895 233.366 206.339 232.851 206.658C232.34 206.977 231.752 207.137 231.087 207.137C230.084 207.137 229.271 206.788 228.646 206.091C228.027 205.394 227.717 204.471 227.717 203.322V203.233ZM228.988 203.384C228.988 204.204 229.177 204.863 229.556 205.359C229.938 205.856 230.449 206.104 231.087 206.104C231.729 206.104 232.24 205.854 232.618 205.353C232.996 204.847 233.186 204.14 233.186 203.233C233.186 202.422 232.992 201.766 232.604 201.265C232.222 200.759 231.711 200.506 231.073 200.506C230.449 200.506 229.945 200.754 229.562 201.251C229.18 201.748 228.988 202.459 228.988 203.384ZM237.752 197.812V199.604H239.133V200.581H237.752V205.168C237.752 205.464 237.813 205.688 237.937 205.838C238.06 205.984 238.269 206.057 238.565 206.057C238.711 206.057 238.912 206.029 239.167 205.975V207C238.834 207.091 238.511 207.137 238.196 207.137C237.631 207.137 237.205 206.966 236.918 206.624C236.631 206.282 236.487 205.797 236.487 205.168V200.581H235.141V199.604H236.487V197.812H237.752ZM244.711 207V200.581H243.542V199.604H244.711V198.845C244.711 198.052 244.923 197.439 245.347 197.006C245.771 196.573 246.37 196.356 247.145 196.356C247.436 196.356 247.726 196.395 248.013 196.473L247.944 197.498C247.73 197.457 247.502 197.437 247.261 197.437C246.851 197.437 246.534 197.557 246.311 197.799C246.087 198.036 245.976 198.378 245.976 198.824V199.604H247.555V200.581H245.976V207H244.711ZM250.33 207H249.065V199.604H250.33V207ZM248.963 197.642C248.963 197.437 249.024 197.263 249.147 197.122C249.275 196.981 249.462 196.91 249.708 196.91C249.954 196.91 250.141 196.981 250.269 197.122C250.396 197.263 250.46 197.437 250.46 197.642C250.46 197.847 250.396 198.018 250.269 198.154C250.141 198.291 249.954 198.359 249.708 198.359C249.462 198.359 249.275 198.291 249.147 198.154C249.024 198.018 248.963 197.847 248.963 197.642ZM253.557 199.604L253.598 200.533C254.163 199.822 254.901 199.467 255.812 199.467C257.376 199.467 258.164 200.349 258.178 202.112V207H256.913V202.105C256.909 201.572 256.785 201.178 256.544 200.923C256.307 200.668 255.936 200.54 255.43 200.54C255.02 200.54 254.66 200.649 254.35 200.868C254.04 201.087 253.798 201.374 253.625 201.729V207H252.36V199.604H253.557ZM259.777 203.24C259.777 202.105 260.046 201.194 260.584 200.506C261.122 199.813 261.826 199.467 262.696 199.467C263.562 199.467 264.248 199.763 264.754 200.355V196.5H266.019V207H264.856L264.795 206.207C264.289 206.827 263.585 207.137 262.683 207.137C261.826 207.137 261.126 206.786 260.584 206.084C260.046 205.382 259.777 204.466 259.777 203.336V203.24ZM261.042 203.384C261.042 204.222 261.215 204.879 261.562 205.353C261.908 205.826 262.386 206.063 262.997 206.063C263.799 206.063 264.385 205.703 264.754 204.983V201.586C264.376 200.889 263.795 200.54 263.011 200.54C262.391 200.54 261.908 200.779 261.562 201.258C261.215 201.736 261.042 202.445 261.042 203.384ZM79.4043 219.233C79.4043 218.509 79.5456 217.857 79.8281 217.278C80.1152 216.7 80.5117 216.253 81.0176 215.938C81.528 215.624 82.109 215.467 82.7607 215.467C83.7679 215.467 84.5814 215.815 85.2012 216.513C85.8255 217.21 86.1377 218.137 86.1377 219.295V219.384C86.1377 220.104 85.9987 220.751 85.7207 221.325C85.4473 221.895 85.0531 222.339 84.5381 222.658C84.0277 222.977 83.4398 223.137 82.7744 223.137C81.7718 223.137 80.9583 222.788 80.334 222.091C79.7142 221.394 79.4043 220.471 79.4043 219.322V219.233ZM80.6758 219.384C80.6758 220.204 80.8649 220.863 81.2432 221.359C81.626 221.856 82.1364 222.104 82.7744 222.104C83.417 222.104 83.9274 221.854 84.3057 221.353C84.6839 220.847 84.873 220.14 84.873 219.233C84.873 218.422 84.6794 217.766 84.292 217.265C83.9092 216.759 83.3988 216.506 82.7607 216.506C82.1364 216.506 81.6328 216.754 81.25 217.251C80.8672 217.748 80.6758 218.459 80.6758 219.384ZM91.2988 216.738C91.1074 216.706 90.9001 216.69 90.6768 216.69C89.8473 216.69 89.2845 217.044 88.9883 217.75V223H87.7236V215.604H88.9541L88.9746 216.458C89.3893 215.797 89.9772 215.467 90.7383 215.467C90.9844 215.467 91.1712 215.499 91.2988 215.562V216.738ZM98.9072 222.104C99.3584 222.104 99.7526 221.968 100.09 221.694C100.427 221.421 100.614 221.079 100.65 220.669H101.847C101.824 221.093 101.678 221.496 101.409 221.879C101.14 222.262 100.78 222.567 100.329 222.795C99.8825 223.023 99.4085 223.137 98.9072 223.137C97.9001 223.137 97.098 222.802 96.501 222.132C95.9085 221.457 95.6123 220.537 95.6123 219.37V219.158C95.6123 218.438 95.7445 217.798 96.0088 217.237C96.2731 216.677 96.6514 216.242 97.1436 215.932C97.6403 215.622 98.2259 215.467 98.9004 215.467C99.7298 215.467 100.418 215.715 100.965 216.212C101.516 216.709 101.81 217.354 101.847 218.146H100.65C100.614 217.668 100.432 217.276 100.104 216.971C99.7799 216.661 99.3789 216.506 98.9004 216.506C98.2578 216.506 97.7588 216.738 97.4033 217.203C97.0524 217.663 96.877 218.331 96.877 219.206V219.445C96.877 220.298 97.0524 220.954 97.4033 221.414C97.7542 221.874 98.2555 222.104 98.9072 222.104ZM106.844 216.738C106.652 216.706 106.445 216.69 106.222 216.69C105.392 216.69 104.829 217.044 104.533 217.75V223H103.269V215.604H104.499L104.52 216.458C104.934 215.797 105.522 215.467 106.283 215.467C106.529 215.467 106.716 215.499 106.844 215.562V216.738ZM110.945 223.137C109.943 223.137 109.127 222.809 108.498 222.152C107.869 221.492 107.555 220.61 107.555 219.507V219.274C107.555 218.541 107.694 217.887 107.972 217.312C108.254 216.734 108.646 216.283 109.147 215.959C109.653 215.631 110.2 215.467 110.788 215.467C111.75 215.467 112.497 215.784 113.03 216.417C113.563 217.05 113.83 217.957 113.83 219.138V219.664H108.819C108.838 220.393 109.049 220.983 109.455 221.435C109.865 221.881 110.385 222.104 111.014 222.104C111.46 222.104 111.839 222.013 112.148 221.831C112.458 221.649 112.729 221.407 112.962 221.106L113.734 221.708C113.115 222.66 112.185 223.137 110.945 223.137ZM110.788 216.506C110.278 216.506 109.849 216.693 109.503 217.066C109.157 217.436 108.942 217.955 108.86 218.625H112.565V218.529C112.529 217.887 112.356 217.39 112.046 217.039C111.736 216.684 111.317 216.506 110.788 216.506ZM119.866 223C119.793 222.854 119.734 222.594 119.688 222.221C119.101 222.831 118.399 223.137 117.583 223.137C116.854 223.137 116.255 222.932 115.785 222.521C115.32 222.107 115.088 221.583 115.088 220.949C115.088 220.179 115.38 219.582 115.963 219.158C116.551 218.73 117.376 218.516 118.438 218.516H119.668V217.935C119.668 217.493 119.536 217.142 119.271 216.882C119.007 216.618 118.618 216.485 118.103 216.485C117.651 216.485 117.273 216.599 116.968 216.827C116.662 217.055 116.51 217.331 116.51 217.654H115.238C115.238 217.285 115.368 216.93 115.628 216.588C115.892 216.242 116.248 215.968 116.694 215.768C117.146 215.567 117.64 215.467 118.178 215.467C119.03 215.467 119.698 215.681 120.181 216.109C120.664 216.533 120.914 217.119 120.933 217.866V221.271C120.933 221.95 121.019 222.49 121.192 222.891V223H119.866ZM117.768 222.036C118.164 222.036 118.54 221.934 118.896 221.729C119.251 221.523 119.508 221.257 119.668 220.929V219.411H118.677C117.127 219.411 116.353 219.865 116.353 220.771C116.353 221.168 116.485 221.478 116.749 221.701C117.013 221.924 117.353 222.036 117.768 222.036ZM124.631 213.812V215.604H126.012V216.581H124.631V221.168C124.631 221.464 124.692 221.688 124.815 221.838C124.938 221.984 125.148 222.057 125.444 222.057C125.59 222.057 125.791 222.029 126.046 221.975V223C125.713 223.091 125.39 223.137 125.075 223.137C124.51 223.137 124.084 222.966 123.797 222.624C123.51 222.282 123.366 221.797 123.366 221.168V216.581H122.02V215.604H123.366V213.812H124.631ZM130.564 223.137C129.562 223.137 128.746 222.809 128.117 222.152C127.488 221.492 127.174 220.61 127.174 219.507V219.274C127.174 218.541 127.313 217.887 127.591 217.312C127.873 216.734 128.265 216.283 128.767 215.959C129.272 215.631 129.819 215.467 130.407 215.467C131.369 215.467 132.116 215.784 132.649 216.417C133.183 217.05 133.449 217.957 133.449 219.138V219.664H128.438C128.457 220.393 128.669 220.983 129.074 221.435C129.484 221.881 130.004 222.104 130.633 222.104C131.079 222.104 131.458 222.013 131.768 221.831C132.077 221.649 132.349 221.407 132.581 221.106L133.354 221.708C132.734 222.66 131.804 223.137 130.564 223.137ZM130.407 216.506C129.897 216.506 129.468 216.693 129.122 217.066C128.776 217.436 128.562 217.955 128.479 218.625H132.185V218.529C132.148 217.887 131.975 217.39 131.665 217.039C131.355 216.684 130.936 216.506 130.407 216.506ZM140.812 221.147L142.534 215.604H143.888L140.914 224.142C140.454 225.372 139.722 225.987 138.72 225.987L138.48 225.967L138.009 225.878V224.853L138.351 224.88C138.779 224.88 139.112 224.793 139.349 224.62C139.59 224.447 139.788 224.13 139.943 223.67L140.224 222.918L137.585 215.604H138.966L140.812 221.147ZM144.578 219.233C144.578 218.509 144.719 217.857 145.002 217.278C145.289 216.7 145.686 216.253 146.191 215.938C146.702 215.624 147.283 215.467 147.935 215.467C148.942 215.467 149.755 215.815 150.375 216.513C150.999 217.21 151.312 218.137 151.312 219.295V219.384C151.312 220.104 151.173 220.751 150.895 221.325C150.621 221.895 150.227 222.339 149.712 222.658C149.201 222.977 148.614 223.137 147.948 223.137C146.946 223.137 146.132 222.788 145.508 222.091C144.888 221.394 144.578 220.471 144.578 219.322V219.233ZM145.85 219.384C145.85 220.204 146.039 220.863 146.417 221.359C146.8 221.856 147.31 222.104 147.948 222.104C148.591 222.104 149.101 221.854 149.479 221.353C149.858 220.847 150.047 220.14 150.047 219.233C150.047 218.422 149.853 217.766 149.466 217.265C149.083 216.759 148.573 216.506 147.935 216.506C147.31 216.506 146.807 216.754 146.424 217.251C146.041 217.748 145.85 218.459 145.85 219.384ZM157.464 222.269C156.972 222.847 156.249 223.137 155.297 223.137C154.508 223.137 153.907 222.909 153.492 222.453C153.082 221.993 152.875 221.314 152.87 220.416V215.604H154.135V220.382C154.135 221.503 154.59 222.063 155.502 222.063C156.468 222.063 157.111 221.703 157.43 220.983V215.604H158.694V223H157.491L157.464 222.269ZM164.197 216.738C164.006 216.706 163.799 216.69 163.575 216.69C162.746 216.69 162.183 217.044 161.887 217.75V223H160.622V215.604H161.853L161.873 216.458C162.288 215.797 162.876 215.467 163.637 215.467C163.883 215.467 164.07 215.499 164.197 215.562V216.738ZM168.504 219.233C168.504 218.509 168.645 217.857 168.928 217.278C169.215 216.7 169.611 216.253 170.117 215.938C170.628 215.624 171.209 215.467 171.86 215.467C172.868 215.467 173.681 215.815 174.301 216.513C174.925 217.21 175.237 218.137 175.237 219.295V219.384C175.237 220.104 175.098 220.751 174.82 221.325C174.547 221.895 174.153 222.339 173.638 222.658C173.127 222.977 172.539 223.137 171.874 223.137C170.871 223.137 170.058 222.788 169.434 222.091C168.814 221.394 168.504 220.471 168.504 219.322V219.233ZM169.775 219.384C169.775 220.204 169.965 220.863 170.343 221.359C170.726 221.856 171.236 222.104 171.874 222.104C172.517 222.104 173.027 221.854 173.405 221.353C173.784 220.847 173.973 220.14 173.973 219.233C173.973 218.422 173.779 217.766 173.392 217.265C173.009 216.759 172.498 216.506 171.86 216.506C171.236 216.506 170.732 216.754 170.35 217.251C169.967 217.748 169.775 218.459 169.775 219.384ZM183.372 221.257L184.794 215.604H186.059L183.905 223H182.88L181.082 217.395L179.332 223H178.307L176.16 215.604H177.418L178.874 221.141L180.597 215.604H181.615L183.372 221.257ZM188.547 215.604L188.588 216.533C189.153 215.822 189.891 215.467 190.803 215.467C192.366 215.467 193.154 216.349 193.168 218.112V223H191.903V218.105C191.899 217.572 191.776 217.178 191.534 216.923C191.297 216.668 190.926 216.54 190.42 216.54C190.01 216.54 189.65 216.649 189.34 216.868C189.03 217.087 188.788 217.374 188.615 217.729V223H187.351V215.604H188.547ZM200.264 213.812V215.604H201.645V216.581H200.264V221.168C200.264 221.464 200.325 221.688 200.448 221.838C200.571 221.984 200.781 222.057 201.077 222.057C201.223 222.057 201.424 222.029 201.679 221.975V223C201.346 223.091 201.022 223.137 200.708 223.137C200.143 223.137 199.717 222.966 199.43 222.624C199.143 222.282 198.999 221.797 198.999 221.168V216.581H197.652V215.604H198.999V213.812H200.264ZM206.197 223.137C205.195 223.137 204.379 222.809 203.75 222.152C203.121 221.492 202.807 220.61 202.807 219.507V219.274C202.807 218.541 202.946 217.887 203.224 217.312C203.506 216.734 203.898 216.283 204.399 215.959C204.905 215.631 205.452 215.467 206.04 215.467C207.002 215.467 207.749 215.784 208.282 216.417C208.815 217.05 209.082 217.957 209.082 219.138V219.664H204.071C204.09 220.393 204.301 220.983 204.707 221.435C205.117 221.881 205.637 222.104 206.266 222.104C206.712 222.104 207.09 222.013 207.4 221.831C207.71 221.649 207.981 221.407 208.214 221.106L208.986 221.708C208.367 222.66 207.437 223.137 206.197 223.137ZM206.04 216.506C205.53 216.506 205.101 216.693 204.755 217.066C204.409 217.436 204.194 217.955 204.112 218.625H207.817V218.529C207.781 217.887 207.608 217.39 207.298 217.039C206.988 216.684 206.569 216.506 206.04 216.506ZM215.118 223C215.045 222.854 214.986 222.594 214.94 222.221C214.353 222.831 213.651 223.137 212.835 223.137C212.106 223.137 211.507 222.932 211.037 222.521C210.572 222.107 210.34 221.583 210.34 220.949C210.34 220.179 210.632 219.582 211.215 219.158C211.803 218.73 212.628 218.516 213.689 218.516H214.92V217.935C214.92 217.493 214.788 217.142 214.523 216.882C214.259 216.618 213.869 216.485 213.354 216.485C212.903 216.485 212.525 216.599 212.22 216.827C211.914 217.055 211.762 217.331 211.762 217.654H210.49C210.49 217.285 210.62 216.93 210.88 216.588C211.144 216.242 211.5 215.968 211.946 215.768C212.397 215.567 212.892 215.467 213.43 215.467C214.282 215.467 214.95 215.681 215.433 216.109C215.916 216.533 216.166 217.119 216.185 217.866V221.271C216.185 221.95 216.271 222.49 216.444 222.891V223H215.118ZM213.02 222.036C213.416 222.036 213.792 221.934 214.147 221.729C214.503 221.523 214.76 221.257 214.92 220.929V219.411H213.929C212.379 219.411 211.604 219.865 211.604 220.771C211.604 221.168 211.737 221.478 212.001 221.701C212.265 221.924 212.605 222.036 213.02 222.036ZM219.356 215.604L219.391 216.424C219.933 215.786 220.664 215.467 221.585 215.467C222.619 215.467 223.324 215.863 223.697 216.656C223.943 216.301 224.262 216.014 224.654 215.795C225.051 215.576 225.518 215.467 226.056 215.467C227.678 215.467 228.503 216.326 228.53 218.044V223H227.266V218.119C227.266 217.59 227.145 217.196 226.903 216.937C226.662 216.672 226.256 216.54 225.687 216.54C225.217 216.54 224.827 216.681 224.518 216.964C224.208 217.242 224.028 217.618 223.978 218.092V223H222.706V218.153C222.706 217.078 222.18 216.54 221.127 216.54C220.298 216.54 219.73 216.893 219.425 217.6V223H218.16V215.604H219.356ZM233.876 222.337C233.876 222.118 233.94 221.936 234.067 221.79C234.2 221.644 234.396 221.571 234.655 221.571C234.915 221.571 235.111 221.644 235.243 221.79C235.38 221.936 235.448 222.118 235.448 222.337C235.448 222.547 235.38 222.722 235.243 222.863C235.111 223.005 234.915 223.075 234.655 223.075C234.396 223.075 234.2 223.005 234.067 222.863C233.94 222.722 233.876 222.547 233.876 222.337ZM233.883 216.301C233.883 216.082 233.947 215.9 234.074 215.754C234.206 215.608 234.402 215.535 234.662 215.535C234.922 215.535 235.118 215.608 235.25 215.754C235.387 215.9 235.455 216.082 235.455 216.301C235.455 216.51 235.387 216.686 235.25 216.827C235.118 216.968 234.922 217.039 234.662 217.039C234.402 217.039 234.206 216.968 234.074 216.827C233.947 216.686 233.883 216.51 233.883 216.301ZM240.227 219.028C240.227 220.045 240.092 221.02 239.823 221.954C239.559 222.884 239.151 223.743 238.6 224.531C238.053 225.32 237.479 225.88 236.877 226.213L236.61 225.44C237.312 224.903 237.875 224.069 238.299 222.938C238.727 221.804 238.946 220.546 238.955 219.165V218.946C238.955 217.989 238.855 217.101 238.654 216.28C238.454 215.455 238.174 214.717 237.813 214.065C237.458 213.414 237.057 212.906 236.61 212.541L236.877 211.769C237.479 212.101 238.05 212.657 238.593 213.437C239.14 214.216 239.548 215.075 239.816 216.014C240.09 216.952 240.227 217.957 240.227 219.028Z" fill="white"/>
<path d="M15.9848 173.599C15.9848 173.599 -18.3907 96.1059 49.3594 96.1059C85.1564 96.1059 70.4098 74.8441 94.7471 50.2381C119.084 25.6321 204.196 5.97297 222.312 53.4884C240.427 101.004 195.658 137.079 238.918 130.89C290.903 123.454 311.439 173.598 311.439 173.598H15.9848V173.599Z" fill="#314254"/>
<path d="M294.392 163.767C291.184 161.285 284.63 162.961 279.791 164.753C279.069 163.678 278.192 162.57 277.132 161.487C287.554 154.38 301.948 139.224 294.319 137.941C287.687 136.826 278.737 150.468 273.953 158.772C268.986 155.235 261.375 152.635 249.755 153.537C219.596 155.877 196.036 135.285 178.669 142.153C164.861 147.613 152.206 150.673 140.002 149.628C140.527 140.19 140.642 121.659 133.64 119.737C126.532 117.786 133.504 138.83 137.379 149.338C136.47 149.215 135.562 149.068 134.658 148.898C132.149 143.661 128.015 136.808 123.474 136.572C119.199 136.352 124.475 142.513 129.668 147.733C114.744 144.416 97.0404 157.259 96.7461 172.443H283.071C283.071 172.443 282.741 170.227 281.279 167.304C288.481 167.155 297.876 166.463 294.392 163.767Z" fill="#12632E"/>
<path d="M137.391 160.707H88.2825V172.446H137.391V160.707Z" fill="black"/>
<path d="M122.248 160.707H73.1406V172.447H122.248V160.707Z" fill="#434445"/>
<path d="M156.71 172.443H193.277V118.338H156.71V172.443Z" fill="#1A8940"/>
<path d="M145.434 172.443H182.001V118.338H145.434V172.443Z" fill="#1EA54C"/>
<path d="M182.001 118.338L193.276 126.462V118.338H182.001Z" fill="#1A8940"/>
<path d="M69.1232 130.323C69.1232 130.323 62.2844 135.706 60.9516 135.379C59.6177 135.052 65.9494 129.568 65.9494 129.568C63.5673 128.356 56.1617 129.116 56.1617 129.116C56.1617 129.116 53.6945 137.538 52.4784 136.873C51.2624 136.209 55.0223 129.535 55.0223 129.535C52.369 129.365 49.115 131.451 49.115 131.451C44.6595 135.175 49.408 141.04 49.408 141.04C49.408 141.04 48.4936 143.939 45.6797 146.579C45.6797 146.579 41.6608 149.725 41.3823 155.346L42.1119 155.415C42.1119 155.415 43.2684 150.18 45.3696 147.704C45.4511 147.614 45.5703 147.486 45.7162 147.33C46.0591 146.994 46.2987 146.743 46.4592 146.555C47.505 145.492 48.9496 144.136 49.6463 144.005C49.6463 144.005 49.6111 143.87 49.6172 143.634C49.6269 143.753 49.6366 143.875 49.6463 144.005C49.8847 146.968 55.3166 149.557 58.6582 150.088C61.9998 150.62 60.9662 149.167 59.8159 147.011C58.6643 144.854 55.0211 143.89 54.1894 142.897C53.3576 141.904 55.0771 141.901 57.0896 142.875C59.1021 143.848 59.3781 146.443 62.6078 148.08C65.8376 149.718 70.6968 144.045 70.6968 144.045C68.1225 143.907 64.4477 140.948 64.5802 140.043C64.7128 139.138 70.8196 141.604 71.8629 141.723C72.9062 141.841 75.2823 140.466 75.6496 136.015C76.0156 131.565 69.1232 130.323 69.1232 130.323Z" fill="#118237"/>
<path d="M32.8057 133.665C32.8057 133.665 40.3584 129.188 36.8344 123.111C36.8344 123.111 34.0144 119.379 30.9939 118.42C30.9939 118.42 32.6051 127.483 30.9939 127.695C29.3826 127.909 29.8861 117.461 29.8861 117.461C29.8861 117.461 21.9297 113.41 18.8082 113.73C18.8082 113.73 23.7428 122.578 22.1316 122.365C20.5203 122.151 14.9814 113.197 14.9814 113.197C14.9814 113.197 6.82438 111.598 5.51474 116.715C4.20509 121.832 6.32095 124.391 7.52846 124.71C8.73717 125.029 16.4917 124.924 16.2898 125.989C16.088 127.055 10.8518 128.761 7.93096 127.802C7.93096 127.802 11.1534 136.225 15.3839 135.797C19.6132 135.371 20.9228 132.598 23.5409 132.386C26.159 132.174 28.073 132.919 26.7634 133.665C25.4537 134.412 21.0226 133.91 18.9079 135.813C16.7933 137.716 15.0811 138.889 19.0088 139.741C22.9366 140.595 29.9858 140.061 31.3951 136.863C32.8057 133.665 32.8057 133.665 32.8057 133.665Z" fill="#1EA54C"/>
<path d="M34.8193 141.447C32.7047 137.289 32.8056 133.664 32.8056 133.664C30.3882 125.562 9.23926 118.314 9.23926 118.314C36.1278 129.827 31.395 136.863 31.395 136.863C32.1198 137.311 33.2057 139.444 33.9608 141.081C34.0678 141.359 34.2381 141.746 34.491 142.268C34.5931 142.505 34.6758 142.698 34.7318 142.833C36.1156 146.501 35.3823 152.833 35.3823 152.833L36.2214 153.071C38.0807 146.69 34.8193 141.447 34.8193 141.447Z" fill="#82B378"/>
<path d="M44.8211 127.489C44.8211 127.489 34.8644 121.587 39.5108 113.576C39.5108 113.576 43.2281 108.658 47.2106 107.394C47.2106 107.394 45.0862 119.338 47.2106 119.62C49.335 119.901 48.671 106.13 48.671 106.13C48.671 106.13 59.1579 100.79 63.2741 101.211C63.2741 101.211 56.7697 112.875 58.8928 112.594C61.0172 112.314 68.3181 100.509 68.3181 100.509C68.3181 100.509 79.0713 98.4009 80.7969 105.147C82.5224 111.893 79.7353 115.265 78.1423 115.688C76.5493 116.11 66.3275 115.968 66.5926 117.374C66.8577 118.78 73.761 121.027 77.6109 119.763C77.6109 119.763 73.3634 130.864 67.788 130.303C62.2125 129.741 60.487 126.087 57.0347 125.807C53.5837 125.526 51.0605 126.51 52.7872 127.493C54.5127 128.477 60.3545 127.815 63.1416 130.324C65.9287 132.833 68.1856 134.379 63.009 135.502C57.8325 136.626 48.5397 135.925 46.6804 131.708C44.8211 127.489 44.8211 127.489 44.8211 127.489Z" fill="#1EA54C"/>
<path d="M75.8853 107.253C75.8853 107.253 48.0082 116.809 44.8223 127.489C44.8223 127.489 44.9548 132.268 42.1665 137.747C42.1665 137.747 37.8679 144.659 40.3181 153.071L41.4247 152.757C41.4247 152.757 40.458 144.41 42.2832 139.577C42.3574 139.399 42.4656 139.143 42.6006 138.831C42.9338 138.141 43.1575 137.633 43.2998 137.266C44.2933 135.108 45.7258 132.296 46.6816 131.706C46.6803 131.705 40.441 122.43 75.8853 107.253Z" fill="#82B378"/>
<path d="M44.4868 171.315C55.2582 171.315 63.9892 162.072 63.9892 150.67H24.9832C24.9832 162.072 33.7153 171.315 44.4868 171.315Z" fill="#0F0F0F"/>
<path d="M49.2851 171.157C48.4922 171.261 47.6836 171.315 46.8616 171.315C36.0913 171.315 27.3591 162.072 27.3591 150.67H32.2037C32.2049 161.204 39.6579 169.894 49.2851 171.157Z" fill="#0F0F0F"/>
<path d="M61.8526 169.896H27.1196C25.7905 169.896 24.7131 171.036 24.7131 172.443H64.2579C64.2579 171.036 63.1805 169.896 61.8526 169.896Z" fill="#F1A34F"/>
<path d="M64.1339 150.67H24.6414C24.476 150.67 24.3423 150.812 24.3423 150.987C24.3423 151.162 24.476 151.304 24.6414 151.304H64.1339C64.2993 151.304 64.433 151.162 64.433 150.987C64.433 150.812 64.2981 150.67 64.1339 150.67Z" fill="#D86713"/>
<path d="M214.628 41.9533C214.062 41.8619 212.359 43.5302 212.359 43.5302C208.721 43.9756 203.403 44.9977 201.489 45.3877C200.132 45.6645 196.482 44.3476 192.917 42.8351C188.677 41.0355 184.557 38.9604 184.557 38.9604C182.204 38.8329 179.532 43.377 184.304 46.2669C185.032 46.7084 187.77 47.4602 190.92 48.1476C190.92 48.1476 190.92 48.1476 190.921 48.1476C195.269 49.0963 200.404 49.9189 202.153 49.6292C204.183 49.2933 209.931 47.0676 213.351 45.362C213.351 45.362 213.354 45.3607 213.359 45.3568C213.373 45.3504 213.385 45.3439 213.397 45.3375C213.603 45.2358 214.439 44.8419 214.997 44.8767C215.638 44.9166 217.064 43.6756 217.108 43.3448C217.151 43.0127 215.193 42.0434 214.628 41.9533Z" fill="#ED975D"/>
<path d="M210.187 99.1954L208.184 99.6266C208.184 99.6266 199.019 88.726 197.605 84.1382C196.848 81.6873 192.01 80.6279 186.952 79.2441C182.552 78.0392 177.986 76.5884 175.804 73.7564C171.116 67.6728 178.748 60.1964 178.748 60.1964C178.748 60.1964 186.861 65.3017 193.862 70.5743C198.754 74.2598 203.102 78.0276 203.758 80.1928C205.349 85.459 208.724 95.4687 210.187 99.1954Z" fill="#757575"/>
<path d="M207.506 102.792H208.632C209.009 102.729 209.287 102.613 209.675 102.56C210.262 102.479 210.533 102.734 210.587 102.792C210.594 102.8 210.598 102.804 210.598 102.804H215.383C215.503 102.622 215.388 102.2 215.275 101.89C215.198 101.678 215.033 101.519 214.827 101.456C214.32 101.3 213.319 101.161 212.404 100.283C211.888 99.79 209.914 98.4706 209.914 98.4706L209.904 98.468C209.86 98.4693 209.654 98.5362 208.756 99.3382C208.291 99.7527 207.501 98.7538 207.501 98.7538C207.501 98.7538 207.352 98.8838 207.242 99.1258C207.153 99.3176 207.087 99.5802 207.138 99.9033C207.21 100.36 206.979 101.209 206.795 101.781C206.684 102.129 206.59 102.376 206.59 102.376C206.59 102.376 206.536 102.663 207.506 102.792Z" fill="#E7EFEF"/>
<path d="M193.862 70.5743L186.952 79.244C182.552 78.0392 177.986 76.5884 175.804 73.7564C171.116 67.6728 178.748 60.1964 178.748 60.1964C178.748 60.1964 186.862 65.3017 193.862 70.5743Z" fill="#5E5E5E"/>
<path d="M187.583 66.047C187.583 66.047 187.026 67.9058 186.119 70.703C184.972 74.2404 183.265 79.2762 181.412 83.9464C181.005 84.9723 180.591 85.9815 180.174 86.9534C178.633 90.5475 177.056 93.6279 175.669 95.1945C173.173 98.0097 167.109 116.104 167.109 116.104L165.598 115.661C165.598 115.661 163.49 100.21 170.954 91.4177C171.034 91.3237 171.097 91.2156 171.105 91.0894C171.106 91.0881 171.106 91.0856 171.106 91.0856C171.206 89.7841 171.561 83.9554 172.333 78.0507C172.523 76.6013 172.738 75.1492 172.98 73.7577C172.995 73.6689 173.012 73.58 173.026 73.4925C174.162 67.0562 175.249 64.1933 176.652 62.7542L186.972 65.8642L187.583 66.047Z" fill="#979797"/>
<path d="M165.429 118.325H166.555C166.932 118.262 167.21 118.146 167.598 118.094C168.185 118.013 168.457 118.267 168.51 118.325C168.517 118.333 168.521 118.337 168.521 118.337H173.306C173.426 118.155 173.311 117.733 173.198 117.423C173.121 117.212 172.956 117.052 172.75 116.989C172.243 116.833 171.242 116.696 170.327 115.818C169.811 115.325 167.838 114.005 167.838 114.005L167.827 114.003C167.783 114.004 167.577 114.071 166.679 114.873C166.214 115.287 165.424 114.288 165.424 114.288C165.424 114.288 165.275 114.418 165.165 114.66C165.076 114.851 165.01 115.115 165.063 115.438C165.134 115.895 164.903 116.743 164.72 117.316C164.608 117.664 164.514 117.911 164.514 117.911C164.514 117.911 164.46 118.198 165.429 118.325Z" fill="#E7EFEF"/>
<path d="M167.642 45.0324C167.642 45.0324 165.915 49.5044 163.925 53.8566C162.25 57.5163 160.39 61.0911 159.21 61.8531C157.547 62.9293 152.965 65.9634 149.992 68.2264C149.992 68.2264 147.671 68.2083 147.312 68.6782C146.952 69.148 146.12 71.2604 146.362 71.4741C146.605 71.6878 148.448 71.5887 148.897 71.1021C149.288 70.6786 150.158 70.3735 150.375 70.3027C150.388 70.2989 150.401 70.2937 150.415 70.2898C150.421 70.2886 150.425 70.2873 150.425 70.2873C154.037 69.1107 159.703 66.6598 161.417 65.4613C162.894 64.4289 166.168 60.1604 168.779 56.3616C168.78 56.3616 168.78 56.3616 168.78 56.3616C170.674 53.6082 172.218 51.1006 172.476 50.2549C174.167 44.7183 169.302 43.2624 167.642 45.0324Z" fill="#FFB27D"/>
<path d="M176.672 27.4986C176.467 27.1819 176.26 26.9026 176.053 26.6529C176.309 26.658 176.586 26.6323 176.816 26.5319C177.421 26.2667 177.698 24.2302 177.607 23.6252C177.516 23.0215 176.675 21.2747 175.636 21.0996C174.598 20.9258 173.525 22.1462 173.525 22.1462C173.717 21.2657 175.473 20.7572 175.473 20.7572C171.856 21.4639 172.039 24.0178 172.065 24.2534C168.752 23.0048 166.809 29.6071 166.809 29.6071L175.388 34.9583C175.388 34.9583 175.41 33.4998 176.23 33.5938C177.505 33.7405 178.568 30.4233 176.672 27.4986Z" fill="black"/>
<path d="M177.219 41.3521C175.251 42.3343 172.639 40.9196 172.653 40.9041C172.822 40.7252 172.763 40.191 172.608 39.4907C172.454 38.7608 172.088 37.7645 171.413 36.5738C171.272 36.3202 171.132 36.0679 170.963 35.8001L171.188 35.7113L175.012 34.0894C175.012 34.0894 175.631 35.2646 176.278 36.3369C176.826 37.2303 177.403 38.0335 177.656 38.0039C177.669 37.9885 180.2 39.8331 177.219 41.3521Z" fill="#FFB27D"/>
<path d="M175.011 34.4897C174.913 35.9328 174.448 38.5382 172.607 39.4908C172.453 38.7609 172.087 37.7646 171.412 36.5738L175.011 34.4897Z" fill="#ED975D"/>
<path d="M171.188 38.2177C171.188 38.2177 176.166 36.14 174.897 32.8781C173.627 29.6162 173.415 27.1511 170.182 28.3392C166.95 29.5274 166.82 31.0399 166.994 32.2383C167.168 33.4355 169.86 38.6734 171.188 38.2177Z" fill="#FFB27D"/>
<path d="M173.046 32.134C175.344 31.7903 176.015 30.8069 176.015 30.8069C176.015 30.8069 173.898 30.1632 172.654 27.9684C172.654 27.9684 170.07 27.0455 168.155 28.5876C168.038 28.7485 167.954 28.9365 167.913 29.1592C167.474 29.0073 166.814 29.0459 166.433 30.3602C165.86 32.3323 167.896 34.4871 167.896 34.4871C168.39 34.3391 167.833 32.582 167.755 31.6436C167.698 30.9536 168.049 30.0692 168.239 29.6496C168.482 29.9843 170.908 33.2102 173.869 33.3389C173.869 33.3389 172.305 32.7648 170.881 31.641C171.59 32.0092 172.343 32.2383 173.046 32.134Z" fill="black"/>
<path d="M186.698 48.0729C186.655 47.9158 186.61 47.7523 186.563 47.585C187.302 46.0892 187.666 44.7401 187.819 43.5996C188.157 41.1886 187.581 39.7005 187.581 39.7005C187.581 39.7005 184.127 37.7619 182.602 37.5147C182.596 37.5122 182.589 37.5096 182.583 37.5083C182.565 37.5057 182.544 37.5031 182.522 37.5019C180.983 37.2766 177.651 37.9975 177.651 37.9975C177.651 37.9975 178.294 39.8086 176.48 41.0174C174.667 42.2248 172.73 40.7084 172.73 40.7084C172.671 40.7496 172.609 40.796 172.545 40.8436C172.545 40.8436 167.773 44.1763 167.344 44.9384C166.916 45.7004 165.08 49.4708 165.08 49.4708C165.08 49.4708 165.662 52.6375 172.108 52.9014C172.638 54.262 173.043 55.5892 173.176 56.6963C173.688 60.9944 173.093 64.3838 173.69 66.8927C174.287 69.4016 185.043 67.9714 186.991 67.4887C188.939 67.006 188.501 64.8047 188.651 62.6653C188.839 59.9762 187.333 50.444 186.698 48.0729Z" fill="#1D9F4A"/>
<path d="M187.819 43.5997C187.665 44.7454 187.299 46.0996 186.553 47.6031C186.384 46.814 185.696 43.9267 184.584 42.6176C184.586 42.6163 186.456 42.7952 187.819 43.5997Z" fill="#AA3419"/>
<path d="M144.025 71.7662C144.025 71.7662 146.029 69.1956 146.46 68.8918C146.892 68.588 148.784 68.055 148.892 68.1619C149.001 68.2687 149.006 68.4245 148.771 68.6433C148.536 68.8622 147.641 69.4157 147.769 69.4775C147.897 69.5393 150.597 68.1168 150.986 68.5957C151.376 69.0746 150.766 71.0505 149.725 71.9979C148.685 72.9454 145.579 73.3496 145.383 73.4809C143.727 74.6034 144.025 71.7662 144.025 71.7662Z" fill="#ED975D"/>
<path d="M108.745 65.8293C108.745 65.8293 111.623 69.4452 115.289 67.9327C115.289 67.9327 116.078 65.913 116.089 64.4249C116.091 64.2421 116.093 64.0645 116.095 63.8958C116.115 62.2198 116.168 61.2788 116.168 61.2788C116.168 61.2788 116.167 61.2788 116.165 61.2775C115.998 61.2042 110.56 58.8407 110.565 59.0364C110.659 63.5714 108.745 65.8293 108.745 65.8293Z" fill="#FFB27D"/>
<path d="M111.111 60.119C111.635 61.1475 113.435 63.1608 116.095 63.8958C116.115 62.2198 116.168 61.2788 116.168 61.2788C116.168 61.2788 116.167 61.2788 116.165 61.2775C116.014 61.2351 110.955 59.8152 111.111 60.119Z" fill="#ED975D"/>
<path d="M117.308 61.1051C117.308 61.1051 111.193 62.6266 110.356 58.5808C109.519 54.5349 108.167 52.0067 112.035 50.8636C115.905 49.7205 116.984 51.0889 117.574 52.3672C118.164 53.6454 118.877 60.6044 117.308 61.1051Z" fill="#FFB27D"/>
<path d="M110.565 59.6839C110.481 59.7405 109.165 60.1679 106.673 54.9133C106.282 54.0882 106.015 52.304 106.927 50.7271C107.839 49.1502 111.073 47.9106 113.759 47.3712C116.445 46.8319 117.09 48.4319 117.723 50.0397C118.387 51.7273 120.305 53.1176 120.305 53.1176C117.988 54.4872 115.199 52.528 114.232 52.8498C113.265 53.1716 112.924 54.7846 112.852 55.3021C112.779 55.8183 112.668 56.2482 111.452 55.7861C110.236 55.3239 110.903 57.6101 111.097 58.0465C111.096 58.0465 111.261 59.2102 110.565 59.6839Z" fill="black"/>
<path d="M94.8128 160.707H91.11C90.3342 160.707 89.4708 159.873 89.2556 158.348C89.0392 156.82 87.4438 155.988 87.0984 154.738C86.7531 153.488 88.5223 151.73 88.5223 151.73L88.8178 151.322L89.1255 150.897L92.0585 151.637C92.0585 151.637 92.1302 152.386 92.1765 153.34C92.2081 154.029 92.2251 154.826 92.1886 155.525C92.1023 157.192 92.6239 158.985 94.0029 159.309C95.3843 159.632 94.8128 160.707 94.8128 160.707Z" fill="#2C3A64"/>
<path d="M120.59 160.744H110.776C110.682 160.724 110.61 160.702 110.568 160.679C109.912 160.321 110.118 157.587 110.197 156.742C110.213 156.586 110.222 156.494 110.222 156.494C110.222 156.494 113.673 153.485 114.149 155.788C114.163 155.86 114.182 155.931 114.2 156.001V156.002C114.799 158.158 117.477 159.137 119.024 159.409C120.204 159.619 120.511 160.37 120.59 160.744Z" fill="#2C3A64"/>
<path d="M118.611 100.661C118.611 100.661 118.087 107.584 117.471 115.905C116.633 127.21 115.626 141.094 115.526 143.724C115.354 148.291 114.663 155.598 114.663 155.598C114.663 155.598 113.025 157.333 109.745 156.602C109.745 156.602 106.823 146.173 105.988 135.137C105.974 134.955 105.962 134.774 105.949 134.591C105.173 123.357 103.964 99.701 103.964 99.701L118.611 100.661Z" fill="#0F0F0F"/>
<path d="M118.611 100.661C118.611 100.661 118.087 107.584 117.471 115.905L105.989 135.138C105.976 134.957 105.964 134.775 105.95 134.592C105.175 123.358 103.966 99.7024 103.966 99.7024L118.611 100.661Z" fill="#0F0F0F"/>
<path d="M116.217 101.484C116.217 101.484 106.77 126.555 100.557 138.337C94.3445 150.119 92.4037 153.407 92.4037 153.407C92.4037 153.407 88.8445 151.9 88.521 150.872C88.521 150.872 90.8971 128.126 95.0571 122.581C97.4076 119.448 100.169 110.046 100.298 106.758C100.427 103.47 101.14 96.9618 101.14 96.9618L116.217 101.484Z" fill="#0F0F0F"/>
<path d="M94.5863 97.3081C94.5863 97.3081 94.3419 100.439 94.1619 100.92C93.9832 101.4 92.7879 102.891 92.6505 102.87C92.5118 102.849 92.4291 102.731 92.4997 102.429C92.5702 102.125 92.9812 101.188 92.8511 101.212C92.721 101.237 91.353 103.877 90.8094 103.728C90.2647 103.578 89.732 101.702 90.0567 100.376C90.3802 99.0498 92.5799 96.9683 92.6638 96.7546C93.3752 94.9421 94.5863 97.3081 94.5863 97.3081Z" fill="#ED975D"/>
<path d="M93.5721 98.1023C94.6179 98.4576 94.7857 98.3778 94.7857 98.3778C94.7857 98.3778 99.8747 88.5688 100.39 87.6703C100.906 86.7718 111.197 76.6707 111.197 76.6707L108.552 66.231C108.552 66.231 96.8481 82.2754 95.5834 84.5783C93.4943 88.3822 92.271 97.2192 92.271 97.2192C92.271 97.2192 92.7513 97.823 93.5721 98.1023Z" fill="#1D9F4A"/>
<path d="M120.606 80.768C120.569 82.9126 120.451 85.3223 120.293 87.7694C120.284 87.9149 120.274 88.0604 120.264 88.2045C120.163 89.7209 120.053 91.2412 119.926 92.7228C119.875 93.3175 119.821 93.9045 119.766 94.4812L119.757 94.5585C119.752 94.7747 119.728 95.009 119.705 95.2227C119.189 100.775 118.648 105.16 118.547 105.227C118.427 105.312 118.292 105.355 118.145 105.335C116.769 105.153 112.666 105.483 109.307 104.709C106.472 104.075 104.032 102.875 101.444 101.257C101.101 101.042 100.318 100.473 100.381 100.049C100.443 99.5814 100.559 98.9055 100.706 98.0572C101.215 95.1043 102.094 90.0247 102.395 84.0801C102.453 82.9731 102.538 81.8789 102.649 80.804C102.937 78.003 103.399 75.3422 104.019 72.9788C105.171 68.5879 106.864 65.2269 108.987 63.9113C109.264 63.7465 110.757 64.7519 112.128 65.6839C113.394 66.5438 114.728 66.7806 116.024 66.6609L117.164 67.9971C118.546 69.6975 120.017 71.9618 120.42 75.1787C120.45 75.4169 120.476 75.6692 120.498 75.9369C120.609 77.2512 120.637 78.9105 120.606 80.768Z" fill="#1EA54C"/>
<path d="M120.605 80.768C120.569 82.9126 120.451 85.3223 120.293 87.7694C120.283 87.9149 120.273 88.0603 120.264 88.2045C112.408 82.9988 111.198 73.4744 111.198 73.4744C115.063 73.6533 118.133 74.5943 120.5 75.9395C120.609 77.2512 120.637 78.9105 120.605 80.768Z" fill="#1C8841"/>
<path d="M145.218 72.0223C144.813 70.8625 144.183 70.9385 144.183 70.9385C144.183 70.9385 132.503 74.0202 131.455 74.1515C130.407 74.2841 118.878 69.386 118.878 69.386C118.878 69.386 114.34 67.2298 112.214 69.1981C110.367 70.9088 110.283 73.0753 110.715 74.8955C111.23 77.0645 112.963 78.6659 115.058 78.9491C119.762 79.5837 129.147 80.777 131.113 80.4874C135.491 79.8425 145.411 73.7807 145.411 73.7807C145.411 73.7807 145.535 72.9337 145.218 72.0223Z" fill="#1D9F4A"/>
<path d="M260.389 94.686C260.389 94.686 262.012 96.2783 261.695 97.4098C261.379 98.5413 259.914 99.2957 259.717 100.678C259.52 102.061 258.727 102.815 258.015 102.815C257.302 102.815 254.618 102.815 254.618 102.815C254.618 102.815 254.094 101.842 255.36 101.548C256.627 101.255 257.104 99.6304 257.025 98.1217C256.946 96.613 257.144 94.6023 257.144 94.6023L259.835 93.9316L260.389 94.686Z" fill="#0F0F0F"/>
<path d="M240.165 102.626C240 102.713 239.422 102.774 238.628 102.814H230.947C230.973 102.572 231.152 101.709 232.408 101.496C233.827 101.251 236.284 100.378 236.833 98.4576C236.851 98.3959 236.867 98.3328 236.88 98.2697C237.316 96.2165 240.481 98.8979 240.481 98.8979C240.481 98.8979 240.491 98.9803 240.504 99.1206C240.578 99.8736 240.765 102.309 240.165 102.626Z" fill="#0F0F0F"/>
<path d="M232.783 47.715C232.783 47.715 233.264 54.0664 233.829 61.7011C234.598 72.0726 235.522 84.8114 235.613 87.225C235.771 91.4151 236.404 98.1191 236.404 98.1191C236.404 98.1191 237.907 99.7115 240.917 99.0408C240.917 99.0408 243.598 89.4713 244.365 79.347C244.377 79.1809 244.389 79.0136 244.4 78.8462C245.112 68.5391 246.22 46.8358 246.22 46.8358L232.783 47.715Z" fill="#3C3E44"/>
<path d="M232.783 47.715C232.783 47.715 233.264 54.0663 233.829 61.7011L244.363 79.3456C244.375 79.1796 244.388 79.0122 244.399 78.8449C245.111 68.5378 246.219 46.8345 246.219 46.8345L232.783 47.715Z" fill="#0F0F0F"/>
<path d="M234.979 48.4693C234.979 48.4693 243.647 71.4715 249.347 82.2806C255.046 93.0898 256.828 96.1071 256.828 96.1071C256.828 96.1071 260.093 94.7246 260.389 93.7823C260.389 93.7823 258.21 72.9132 254.393 67.8272C252.236 64.9527 249.703 56.3268 249.585 53.3095C249.466 50.2934 248.813 44.3218 248.813 44.3218L234.979 48.4693Z" fill="#3C3E44"/>
<path d="M208.244 35.9931C208.244 35.9931 205.894 35.4241 205.497 35.4524C205.102 35.4808 203.717 36.0948 203.699 36.2132C203.681 36.3316 203.746 36.4282 203.985 36.4462C204.224 36.4629 205.011 36.3561 204.961 36.4565C204.911 36.5569 202.643 37.0293 202.619 37.5121C202.594 37.9948 203.836 38.8933 204.886 38.9538C205.935 39.0143 207.999 37.7232 208.176 37.7064C209.678 37.5674 208.244 35.9931 208.244 35.9931Z" fill="#FFB27D"/>
<path d="M207.239 36.6252C206.902 35.4886 206.981 35.3071 206.981 35.3071C206.981 35.3071 216.511 29.8516 217.384 29.2981C218.257 28.7446 228.105 17.6497 228.105 17.6497L238.193 20.5885C238.193 20.5885 222.582 33.1766 220.345 34.5334C216.648 36.7732 208.086 38.0412 208.086 38.0412C208.086 38.0412 207.502 37.5186 207.239 36.6252Z" fill="#1D9F4A"/>
<path d="M231.162 12.2573C231.162 12.2573 227.626 18.8442 224.168 19.7041C224.168 19.7041 224.312 17.4913 225.155 15.9775C224.809 15.5475 224.508 15.1523 224.245 14.7983C223.374 13.6179 222.961 12.8958 222.961 12.8958L224.134 9.5566L224.931 7.29102C225.314 8.02604 225.735 8.65294 226.175 9.18844C228.439 11.9458 231.162 12.2573 231.162 12.2573Z" fill="#FFB27D"/>
<path d="M226.173 9.18852C226.173 9.18852 226.595 12.4891 224.244 14.7984C223.373 13.618 222.959 12.8958 222.959 12.8958L224.133 9.55668C225.392 9.15119 226.173 9.18852 226.173 9.18852Z" fill="#ED975D"/>
<path d="M222.028 13.3823C222.028 13.3823 227.313 11.2017 225.979 7.73898C224.645 4.27624 224.43 1.6631 220.999 2.90917C217.569 4.15524 217.427 5.75788 217.607 7.02841C217.785 8.29766 220.62 13.8599 222.028 13.3823Z" fill="#FFB27D"/>
<path d="M249.325 46.0596C247.193 49.3035 231.256 53.639 231.445 51.3927C231.517 50.5328 231.614 49.0177 231.442 46.9632C231.402 46.4818 231.346 45.972 231.273 45.4327C230.868 42.4823 229.907 38.6874 227.761 34.2965C227.601 33.967 227.433 33.6362 227.259 33.3002C226.376 31.5997 225.624 29.8027 225.05 28.0443C223.946 24.6665 223.501 21.4342 224.057 19.3218C224.06 19.3115 224.064 19.3025 224.066 19.2922C227.398 17.6612 228.688 11.3369 228.688 11.3369C228.688 11.3369 240.054 13.4969 246.42 29.535C246.421 29.535 251.18 43.2353 249.325 46.0596Z" fill="#1EA54C"/>
<path d="M231.443 46.9633C231.402 46.4818 231.347 45.9721 231.274 45.4327C230.869 42.4823 229.907 38.6874 227.762 34.2966C228.13 31.9332 228.638 29.9675 229.197 29.0832C231.463 25.4865 232.784 24.9253 232.784 24.9253C232.784 24.9253 236.183 40.1008 231.443 46.9633Z" fill="#1B8B42"/>
<path d="M213.527 43.3524C213.527 43.3524 210.382 43.5275 209.896 43.7128C209.408 43.8982 207.877 45.1919 207.894 45.3477C207.911 45.5034 208.026 45.6 208.332 45.5318C208.638 45.4622 209.59 45.031 209.561 45.1765C209.532 45.3219 206.845 46.7727 206.976 47.388C207.107 48.0046 208.97 48.6611 210.309 48.3406C211.648 48.0187 213.803 45.6167 214.019 45.5305C215.858 44.7877 213.527 43.3524 213.527 43.3524Z" fill="#FFB27D"/>
<path d="M212.933 44.6153C212.303 43.5378 212.757 43.0461 212.757 43.0461C212.757 43.0461 222.469 34.9955 223.23 34.182C223.991 33.3684 227.518 20.4186 227.518 20.4186C227.518 20.4186 228.731 15.1781 231.574 14.6001C234.044 14.0981 235.752 15.3918 236.869 16.9082C238.201 18.7155 238.331 21.2076 237.227 23.1785C234.747 27.6015 229.744 36.3832 228.283 37.8829C225.031 41.222 214.153 45.8871 214.153 45.8871C214.153 45.8871 213.428 45.461 212.933 44.6153Z" fill="#1D9F4A"/>
<path d="M226.737 1.30657C226.774 1.22934 226.882 1.14695 227.145 1.06199C227.145 1.06199 226.899 0.974459 226.612 1.0414C226.464 0.657792 226.104 0.00514906 225.427 0C225.427 0 225.814 0.106843 225.958 0.51748C225.031 -0.104268 223.313 -0.284485 219.024 1.22676C213.372 3.21945 216.196 6.69377 217.052 6.97182C217.909 7.24987 219.486 5.46315 220.904 5.21857C222.322 4.97399 223.091 7.06579 223.63 7.23957C224.172 7.41335 223.864 6.93707 224.431 6.46078C224.997 5.98449 225.322 7.1057 225.31 7.8935C225.298 8.68131 226.402 9.42792 226.402 9.42792C226.402 9.42792 226.402 9.42792 227.05 8.17026C227.698 6.91261 227.522 2.34797 226.903 1.52541C226.848 1.45461 226.793 1.38123 226.737 1.30657Z" fill="black"/>
<path d="M319.579 173.652H0.420741C0.189698 173.652 0 173.451 0 173.207V172.889C0 172.644 0.189698 172.443 0.420741 172.443H319.579C319.81 172.443 320 172.644 320 172.889V173.207C320 173.451 319.81 173.652 319.579 173.652Z" fill="#2E3552"/>
<path d="M137.391 160.575V167.347L122.248 160.575H137.391Z" fill="black"/>
<path d="M266.979 102.814H216.901V172.443H266.979V102.814Z" fill="#0F0F0F"/>
<path d="M251.539 102.814H201.459V172.443H251.539V102.814Z" fill="#434445"/>
<path d="M266.98 102.814V113.226L251.539 102.814H266.98Z" fill="black"/>
</svg>
