<svg width="244" height="120" viewBox="0 0 244 120" fill="none" xmlns="http://www.w3.org/2000/svg">
<path d="M192.5 26.2735L187.707 30.8892L194.697 32.5548L192.5 26.2735Z" fill="#1EA54C"/>
<path d="M49.1799 26.2735L53.9734 30.8892L46.983 32.5548L49.1799 26.2735Z" fill="#1EA54C"/>
<circle r="1.02538" transform="matrix(-0.118276 -0.992981 -0.992981 0.118276 205.038 28.5103)" fill="#1EA54C"/>
<circle cx="36.6419" cy="28.5103" r="1.02538" transform="rotate(-83.2074 36.6419 28.5103)" fill="#1EA54C"/>
<path d="M214.314 62.7016L218.644 62.7953L216.924 58.8202L214.314 62.7016Z" stroke="#E7EFEF" stroke-width="1.37118"/>
<path d="M217.977 35.1536L221.636 37.4716L222.218 33.1795L217.977 35.1536Z" stroke="#1AA166" stroke-width="1.37118"/>
<path d="M199.685 48.9103L193.212 47.3696L195.586 54.1521L199.685 48.9103Z" fill="#1EA54C"/>
<circle r="0.854485" transform="matrix(0.771757 -0.635918 -0.635918 -0.771757 221.637 49.9331)" fill="#1EA54C"/>
<circle r="1.53807" transform="matrix(0.771757 -0.635918 -0.635918 -0.771757 209.748 47.329)" fill="#E7EFEF"/>
<circle r="1.02538" transform="matrix(0.771757 -0.635918 -0.635918 -0.771757 204.576 60.6699)" fill="#1EA54C"/>
<path d="M27.3671 62.7016L23.0368 62.7953L24.757 58.8202L27.3671 62.7016Z" stroke="#E7EFEF" stroke-width="1.37118"/>
<path d="M23.7035 35.1536L20.0446 37.4716L19.4631 33.1795L23.7035 35.1536Z" stroke="#1AA166" stroke-width="1.37118"/>
<path d="M41.9953 48.9103L48.4689 47.3696L46.0946 54.1521L41.9953 48.9103Z" fill="#1EA54C"/>
<circle cx="20.0436" cy="49.9331" r="0.854485" transform="rotate(-140.512 20.0436 49.9331)" fill="#1EA54C"/>
<circle cx="31.9327" cy="47.329" r="1.53807" transform="rotate(-140.512 31.9327 47.329)" fill="#E7EFEF"/>
<circle cx="37.1049" cy="60.6699" r="1.02538" transform="rotate(-140.512 37.1049 60.6699)" fill="#1EA54C"/>
<path d="M213.072 85.7874L214.516 81.7041L210.202 82.0933L213.072 85.7874Z" stroke="#E7EFEF" stroke-width="1.37118"/>
<path d="M188.055 73.6833L191.402 70.9341L187.508 69.038L188.055 73.6833Z" stroke="#1AA166" stroke-width="1.37118"/>
<path d="M186.598 83.3055L183.108 88.9713L190.293 88.8398L186.598 83.3055Z" fill="#1EA54C"/>
<circle r="0.854485" transform="matrix(-0.362328 -0.932051 -0.932051 0.362328 203.238 74.8345)" fill="#1EA54C"/>
<circle r="1.53807" transform="matrix(-0.362328 -0.932051 -0.932051 0.362328 197.042 85.3107)" fill="#E7EFEF"/>
<circle r="1.02538" transform="matrix(-0.362328 -0.932051 -0.932051 0.362328 217.405 75.2339)" fill="#1EA54C"/>
<path d="M28.6091 85.7874L27.1644 81.7041L31.4782 82.0933L28.6091 85.7874Z" stroke="#E7EFEF" stroke-width="1.37118"/>
<path d="M53.6252 73.6833L50.2782 70.9341L54.1725 69.038L53.6252 73.6833Z" stroke="#1AA166" stroke-width="1.37118"/>
<path d="M55.0823 83.3055L58.5722 88.9713L51.3874 88.8398L55.0823 83.3055Z" fill="#1EA54C"/>
<circle cx="38.4429" cy="74.8345" r="0.854485" transform="rotate(-68.7568 38.4429 74.8345)" fill="#1EA54C"/>
<circle cx="44.6383" cy="85.3107" r="1.53807" transform="rotate(-68.7568 44.6383 85.3107)" fill="#E7EFEF"/>
<circle cx="24.2755" cy="75.2339" r="1.02538" transform="rotate(-68.7568 24.2755 75.2339)" fill="#1EA54C"/>
</svg>
